<?xml version="1.0" encoding="utf-8"?>
<!-- Generator: Adobe Illustrator 27.9.0, SVG Export Plug-In . SVG Version: 6.00 Build 0)  -->
<svg version="1.1" id="Layer_1" xmlns="http://www.w3.org/2000/svg" xmlns:xlink="http://www.w3.org/1999/xlink" x="0px" y="0px"
	 viewBox="0 0 496 549" style="enable-background:new 0 0 496 549;" xml:space="preserve">
<path d="M165.9,398.4c0,2-2.3,3.6-5.2,3.6c-3.3,0.3-5.6-1.3-5.6-3.6c0-2,2.3-3.6,5.2-3.6C163.3,394.5,165.9,396.1,165.9,398.4z
	 M134.8,393.9c-0.7,2,1.3,4.3,4.3,4.9c2.6,1,5.6,0,6.2-2s-1.3-4.3-4.3-5.2C138.4,390.9,135.5,391.9,134.8,393.9L134.8,393.9z
	 M179,392.2c-2.9,0.7-4.9,2.6-4.6,4.9c0.3,2,2.9,3.3,5.9,2.6c2.9-0.7,4.9-2.6,4.6-4.6C184.6,393.2,181.9,391.9,179,392.2z M244.8,9
	C106.1,9,0,114.3,0,253c0,110.9,69.8,205.8,169.5,239.2c12.8,2.3,17.3-5.6,17.3-12.1c0-6.2-0.3-40.4-0.3-61.4c0,0-70,15-84.7-29.8
	c0,0-11.4-29.1-27.8-36.6c0,0-22.9-15.7,1.6-15.4c0,0,24.9,2,38.6,25.8c21.9,38.6,58.6,27.5,72.9,20.9c2.3-16,8.8-27.1,16-33.7
	c-55.9-6.2-112.3-14.3-112.3-110.5c0-27.5,7.6-41.3,23.6-58.9c-2.6-6.5-11.1-33.3,2.6-67.9c20.9-6.5,69,27,69,27
	c20-5.6,41.5-8.5,62.8-8.5s42.8,2.9,62.8,8.5c0,0,48.1-33.6,69-27c13.7,34.7,5.2,61.4,2.6,67.9c16,17.7,25.8,31.5,25.8,58.9
	c0,96.5-58.9,104.2-114.8,110.5c9.2,7.9,17,22.9,17,46.4c0,33.7-0.3,75.4-0.3,83.6c0,6.5,4.6,14.4,17.3,12.1
	C428.2,458.8,496,363.9,496,253C496,114.3,383.5,9,244.8,9z M97.2,353.9c-1.3,1-1,3.3,0.7,5.2c1.6,1.6,3.9,2.3,5.2,1
	c1.3-1,1-3.3-0.7-5.2C100.8,353.3,98.5,352.6,97.2,353.9z M86.4,345.8c-0.7,1.3,0.3,2.9,2.3,3.9c1.6,1,3.6,0.7,4.3-0.7
	c0.7-1.3-0.3-2.9-2.3-3.9C88.7,344.5,87.1,344.8,86.4,345.8z M118.8,381.4c-1.6,1.3-1,4.3,1.3,6.2c2.3,2.3,5.2,2.6,6.5,1
	c1.3-1.3,0.7-4.3-1.3-6.2C123.1,380.1,120.1,379.8,118.8,381.4z M107.4,366.7c-1.6,1-1.6,3.6,0,5.9s4.3,3.3,5.6,2.3
	c1.6-1.3,1.6-3.9,0-6.2C111.6,366.4,109,365.4,107.4,366.7L107.4,366.7z"/>
</svg>
