<?xml version="1.0" encoding="UTF-8" standalone="no"?>
<svg
   xmlns:dc="http://purl.org/dc/elements/1.1/"
   xmlns:cc="http://creativecommons.org/ns#"
   xmlns:rdf="http://www.w3.org/1999/02/22-rdf-syntax-ns#"
   xmlns:svg="http://www.w3.org/2000/svg"
   xmlns="http://www.w3.org/2000/svg"
   version="1.1"
   id="svg4664"
   viewBox="0 0 157.47375 243.555"
   height="68.736633mm"
   width="44.442593mm">
  <defs
     id="defs4666" />
  <metadata
     id="metadata4669">
    <rdf:RDF>
      <cc:Work
         rdf:about="">
        <dc:format>image/svg+xml</dc:format>
        <dc:type
           rdf:resource="http://purl.org/dc/dcmitype/StillImage" />
        <dc:title></dc:title>
      </cc:Work>
    </rdf:RDF>
  </metadata>
  <g
     transform="translate(-269.83455,-364.87046)"
     id="layer1">
    <g
       style="fill:#d5f6ff;stroke:none"
       id="g3346"
       transform="matrix(1.25,0,0,-1.25,111.08455,1343.8692)">
      <path
         id="path3348"
         style="fill:#d5f6ff;fill-opacity:1;fill-rule:evenodd;stroke:none;stroke-width:0.40000001;stroke-linecap:butt;stroke-linejoin:round;stroke-miterlimit:10;stroke-dasharray:none;stroke-opacity:1"
         d="M 143.497,713.333 128,697.836 l 0,-92.984 15.497,-15.497 92.984,0 15.498,15.497 0,92.984 -15.498,15.497 -92.984,0 z" />
    </g>
    <g
       style="fill:#d5f6ff;stroke:#2ad4ff"
       id="g3674"
       transform="matrix(1.25,0,0,-1.25,111.08455,1343.8692)">
      <path
         id="path3676"
         style="fill:#d5f6ff;fill-opacity:1;fill-rule:evenodd;stroke:#2ad4ff;stroke-width:2;stroke-linecap:butt;stroke-linejoin:round;stroke-miterlimit:10;stroke-dasharray:none;stroke-opacity:1"
         d="m 128,697.836 c 0,8.559 6.938,15.497 15.497,15.497" />
    </g>
    <g
       style="fill:#d5f6ff;stroke:#2ad4ff"
       id="g3678"
       transform="matrix(1.25,0,0,-1.25,111.08455,1343.8692)">
      <path
         id="path3680"
         style="fill:#d5f6ff;fill-opacity:1;fill-rule:evenodd;stroke:#2ad4ff;stroke-width:2;stroke-linecap:butt;stroke-linejoin:round;stroke-miterlimit:10;stroke-dasharray:none;stroke-opacity:1"
         d="m 143.497,589.355 c -8.559,0 -15.497,6.938 -15.497,15.497" />
    </g>
    <g
       style="fill:#d5f6ff;stroke:#2ad4ff"
       id="g3682"
       transform="matrix(1.25,0,0,-1.25,111.08455,1343.8692)">
      <path
         id="path3684"
         style="fill:#d5f6ff;fill-opacity:1;fill-rule:evenodd;stroke:#2ad4ff;stroke-width:2;stroke-linecap:butt;stroke-linejoin:round;stroke-miterlimit:10;stroke-dasharray:none;stroke-opacity:1"
         d="m 251.979,604.852 c 0,-8.559 -6.939,-15.497 -15.498,-15.497" />
    </g>
    <g
       style="fill:#d5f6ff;stroke:#00ccff"
       id="g3686"
       transform="matrix(1.25,0,0,-1.25,111.08455,1343.8692)">
      <path
         id="path3688"
         style="fill:#d5f6ff;fill-opacity:1;fill-rule:evenodd;stroke:#00ccff;stroke-width:2;stroke-linecap:butt;stroke-linejoin:round;stroke-miterlimit:10;stroke-dasharray:none;stroke-opacity:1"
         d="m 236.481,713.333 c 8.559,0 15.498,-6.938 15.498,-15.497" />
    </g>
    <g
       style="stroke:#2ad4ff"
       id="g3690"
       transform="matrix(1.25,0,0,-1.25,111.08455,1343.8692)">
      <path
         id="path3692"
         style="fill:#dfe8f3;fill-opacity:1;fill-rule:evenodd;stroke:#2ad4ff;stroke-width:2;stroke-linecap:butt;stroke-linejoin:round;stroke-miterlimit:10;stroke-dasharray:none;stroke-opacity:1"
         d="m 236.481,713.333 -92.984,0" />
    </g>
    <g
       style="stroke:#2ad4ff"
       id="g3694"
       transform="matrix(1.25,0,0,-1.25,111.08455,1343.8692)">
      <path
         id="path3696"
         style="fill:#dfe8f3;fill-opacity:1;fill-rule:evenodd;stroke:#2ad4ff;stroke-width:2;stroke-linecap:butt;stroke-linejoin:round;stroke-miterlimit:10;stroke-dasharray:none;stroke-opacity:1"
         d="m 128,697.836 0,-92.984" />
    </g>
    <g
       style="stroke:#2ad4ff"
       id="g3698"
       transform="matrix(1.25,0,0,-1.25,111.08455,1343.8692)">
      <path
         id="path3700"
         style="fill:#dfe8f3;fill-opacity:1;fill-rule:evenodd;stroke:#2ad4ff;stroke-width:2;stroke-linecap:butt;stroke-linejoin:round;stroke-miterlimit:10;stroke-dasharray:none;stroke-opacity:1"
         d="m 143.497,589.355 92.984,0" />
    </g>
    <g
       style="fill:#2ad4ff;stroke:#2ad4ff"
       id="g3702"
       transform="matrix(1.25,0,0,-1.25,111.08455,1343.8692)">
      <path
         id="path3704"
         style="fill:#2ad4ff;fill-opacity:1;fill-rule:evenodd;stroke:#2ad4ff;stroke-width:2;stroke-linecap:butt;stroke-linejoin:round;stroke-miterlimit:10;stroke-dasharray:none;stroke-opacity:1"
         d="m 251.979,604.852 0,92.984" />
    </g>
    <g
       style="fill:#f4eed7;stroke:#00ccff"
       id="g3706"
       transform="matrix(1.25,0,0,-1.25,111.08455,1343.8692)">
      <path
         id="path3708"
         style="fill:#f4eed7;fill-opacity:1;fill-rule:evenodd;stroke:#00ccff;stroke-width:2;stroke-linecap:butt;stroke-linejoin:round;stroke-miterlimit:10;stroke-dasharray:none;stroke-opacity:1"
         d="m 143.497,697.836 0,-92.984 92.984,0 0,92.984 -92.984,0 z" />
    </g>
    <g
       id="g3710"
       transform="matrix(1.25,0,0,-1.25,111.08455,1343.8692)">
      <path
         id="path3712"
         style="fill:#ffffff;fill-opacity:1;fill-rule:evenodd;stroke:none"
         d="m 226.841,672.489 c 0,0 0,0 -0.783,-0.34 -0.782,-0.339 -2.348,-1.018 -3.706,-1.735 -1.358,-0.717 -2.509,-1.471 -3.565,-2.103 -1.056,-0.632 -2.018,-1.142 -2.886,-1.453 -0.868,-0.311 -1.641,-0.424 -2.518,-0.434 -0.877,-0.009 -1.858,0.085 -2.669,-0.085 -0.811,-0.169 -1.453,-0.603 -1.858,-1.065 -0.406,-0.462 -0.576,-0.953 -0.623,-1.443 -0.047,-0.491 0.028,-0.981 0.275,-1.412 0.247,-0.431 0.664,-0.803 1.041,-0.737 0.378,0.066 0.715,0.57 1.206,0.888 0.491,0.318 1.136,0.45 1.632,0.422 0.495,-0.029 0.841,-0.218 0.745,-0.803 -0.096,-0.585 -0.635,-1.566 -1.083,-2.386 -0.449,-0.82 -0.807,-1.48 -1.269,-1.98 -0.463,-0.5 -1.028,-0.839 -1.557,-1.773 -0.528,-0.934 -1.018,-2.462 -1.914,-4.282 -0.896,-1.82 -2.198,-3.933 -3.82,-6.244 -1.622,-2.31 -3.565,-4.819 -5.008,-6.564 -1.443,-1.745 -2.386,-2.726 -3.11,-3.601 -0.723,-0.875 -1.228,-1.644 -1.706,-2.888 -0.478,-1.243 -0.931,-2.959 -1.478,-4.289 -0.547,-1.33 -1.188,-2.273 -1.443,-2.848 -0.255,-0.576 -0.123,-0.783 0.027,-1.062 0.149,-0.279 0.316,-0.629 0.588,-1.172 0.272,-0.543 0.649,-1.279 0.941,-1.892 0.293,-0.613 0.5,-1.103 0.576,-1.471 0.075,-0.368 0.018,-0.613 0.113,-0.906 0.094,-0.292 0.339,-0.631 0.585,-0.801 0.245,-0.17 0.49,-0.17 0.707,-0.095 0.217,0.076 0.406,0.227 0.66,0.302 0.255,0.076 0.575,0.076 0.877,0.029 0.302,-0.048 0.585,-0.142 0.793,-0.104 0.207,0.038 0.339,0.207 0.405,0.462 0.066,0.255 0.066,0.594 -0.009,1.019 -0.076,0.424 -0.227,0.933 -0.321,1.207 -0.094,0.273 -0.132,0.311 0.085,0.292 0.217,-0.019 0.688,-0.094 1.169,-0.207 0.481,-0.114 0.972,-0.264 1.519,-0.538 0.547,-0.273 1.15,-0.67 1.688,-1.066 0.538,-0.396 1.009,-0.792 1.403,-1.186 0.394,-0.394 0.711,-0.786 0.943,-1.127 0.232,-0.341 0.38,-0.63 0.46,-1.053 0.079,-0.424 0.09,-0.982 0.018,-1.356 -0.073,-0.374 -0.229,-0.564 -0.274,-0.692 -0.044,-0.128 0.023,-0.195 0.235,-0.318 0.212,-0.123 0.569,-0.301 1.066,-0.497 0.496,-0.195 1.133,-0.407 1.713,-0.574 0.58,-0.168 1.105,-0.291 1.602,-0.341 0.496,-0.05 0.965,-0.028 1.49,-0.039 0.524,-0.011 1.105,-0.056 1.468,-0.089 0.362,-0.034 0.507,-0.056 0.685,-0.118 0.177,-0.063 0.387,-0.165 0.625,-0.227 0.239,-0.062 0.507,-0.085 0.697,-0.085 0.19,0 0.301,0.023 0.34,0.101 0.039,0.078 0.006,0.212 -0.083,0.323 -0.09,0.112 -0.235,0.201 -0.201,0.257 0.033,0.056 0.245,0.078 0.552,0.101 0.307,0.022 0.709,0.044 0.994,0.111 0.284,0.067 0.452,0.179 0.496,0.29 0.045,0.112 -0.033,0.224 -0.257,0.424 -0.223,0.201 -0.591,0.492 -0.965,0.693 -0.374,0.2 -0.753,0.312 -1.222,0.307 -0.469,-0.006 -1.027,-0.129 -1.585,-0.213 -0.558,-0.083 -1.116,-0.128 -1.786,-0.094 -0.67,0.033 -1.451,0.145 -2.009,0.217 -0.558,0.073 -0.893,0.106 -1.06,0.212 -0.168,0.106 -0.168,0.285 -0.084,0.458 0.084,0.173 0.251,0.34 0.508,0.603 0.257,0.262 0.603,0.619 0.91,0.92 0.306,0.302 0.574,0.547 0.865,1.078 0.29,0.53 0.602,1.344 0.948,2.74 0.346,1.395 0.726,3.37 1.033,4.643 0.307,1.272 0.541,1.841 0.742,2.584 0.201,0.742 0.368,1.657 0.536,2.572 0.167,0.915 0.334,1.831 0.831,3.036 0.497,1.206 1.323,2.701 1.979,3.774 0.657,1.072 1.144,1.722 1.706,2.359 0.562,0.637 1.198,1.262 1.806,1.804 0.608,0.541 1.189,0.999 1.624,1.289 0.435,0.29 0.726,0.413 0.932,0.48 0.207,0.067 0.329,0.078 0.508,0.061 0.178,-0.017 0.413,-0.061 0.586,-0.173 0.173,-0.112 0.285,-0.29 0.374,-0.469 0.089,-0.178 0.156,-0.357 0.229,-0.446 0.072,-0.089 0.15,-0.089 0.251,-0.117 0.1,-0.028 0.223,-0.084 0.357,-0.095 0.134,-0.011 0.279,0.022 0.525,0.134 0.245,0.111 0.591,0.301 0.837,0.468 0.245,0.168 0.39,0.313 0.58,0.346 0.19,0.034 0.424,-0.044 0.625,0.012 0.201,0.055 0.368,0.245 0.452,0.385 0.084,0.139 0.084,0.229 -0.011,0.262 -0.095,0.033 -0.285,0.011 -0.313,0.061 -0.027,0.051 0.106,0.173 0.313,0.318 0.206,0.146 0.485,0.313 0.675,0.503 0.19,0.189 0.29,0.402 0.268,0.524 -0.022,0.123 -0.167,0.157 -0.391,0.214 -0.224,0.058 -0.527,0.14 -0.771,0.138 -0.244,-10e-4 -0.429,-0.087 -0.597,-0.15 -0.169,-0.063 -0.321,-0.102 -0.449,-0.198 -0.129,-0.096 -0.235,-0.248 -0.38,-0.35 -0.145,-0.103 -0.33,-0.155 -0.548,-0.159 -0.218,-0.003 -0.469,0.043 -0.598,0.09 -0.129,0.046 -0.135,0.092 -0.175,0.198 -0.04,0.105 -0.112,0.27 -0.218,0.462 -0.106,0.191 -0.244,0.409 -0.373,0.621 -0.129,0.211 -0.248,0.416 -0.333,0.752 -0.085,0.337 -0.135,0.805 -0.122,1.343 0.013,0.539 0.09,1.149 0.172,1.608 0.081,0.459 0.167,0.769 0.193,1.142 0.026,0.374 -0.009,0.811 -0.039,1.099 -0.03,0.288 -0.056,0.425 -0.079,0.583 -0.023,0.159 -0.043,0.338 0.003,0.636 0.046,0.297 0.16,0.712 0.216,1.146 0.057,0.433 0.057,0.886 0.047,1.244 -0.009,0.359 -0.028,0.623 0.123,0.821 0.151,0.198 0.471,0.33 0.726,0.566 0.255,0.236 0.443,0.575 0.613,0.858 0.17,0.283 0.321,0.509 0.434,0.698 0.113,0.189 0.189,0.34 0.302,0.557 0.113,0.216 0.264,0.499 0.452,0.66 0.189,0.16 0.415,0.198 0.623,0.49 0.207,0.292 0.396,0.839 0.583,1.314 0.188,0.474 0.374,0.876 0.542,1.369 0.169,0.494 0.32,1.078 0.47,1.607 0.151,0.528 0.302,0.999 0.529,1.584 0.226,0.585 0.528,1.283 0.82,1.811 0.293,0.528 0.575,0.887 0.679,1.198 0.104,0.311 0.028,0.575 0.019,0.811 -0.009,0.236 0.047,0.443 -0.019,0.622 -0.066,0.179 -0.254,0.33 -0.358,0.434 -0.104,0.104 -0.123,0.161 -0.104,0.472 0.019,0.311 0.076,0.877 0.028,1.235 -0.047,0.359 -0.198,0.51 -0.396,0.613 -0.198,0.104 -0.443,0.161 -0.773,0.123 -0.33,-0.038 -0.745,-0.17 -0.953,-0.236 -0.207,-0.066 -0.207,-0.066 -0.207,-0.066" />
    </g>
    <g
       id="g3714"
       transform="matrix(1.25,0,0,-1.25,111.08455,1343.8692)">
      <path
         id="path3716"
         style="fill:#ffffff;fill-opacity:1;fill-rule:evenodd;stroke:none"
         d="m 228.841,667.63 c 0,0 0,0 0.06,-0.138 0.061,-0.137 0.181,-0.412 0.344,-0.94 0.163,-0.528 0.369,-1.309 0.567,-2.283 0.197,-0.975 0.386,-2.143 0.528,-3.284 0.141,-1.142 0.236,-2.258 0.283,-2.817 0.047,-0.558 0.047,-0.558 0.047,-0.558" />
    </g>
    <g
       id="g3718"
       transform="matrix(1.25,0,0,-1.25,111.08455,1343.8692)">
      <path
         id="path3720"
         style="fill:#ffffff;fill-opacity:1;fill-rule:evenodd;stroke:none"
         d="m 229.567,669.05 c 0,0 0,0 0.26,0.01 0.261,0.01 0.783,0.03 1.305,0.01 0.522,-0.02 1.043,-0.08 1.638,-0.188 0.594,-0.109 1.261,-0.268 1.595,-0.347 0.333,-0.079 0.333,-0.079 0.333,-0.079" />
    </g>
    <g
       id="g3722"
       transform="matrix(1.25,0,0,-1.25,111.08455,1343.8692)">
      <path
         id="path3724"
         style="fill:#ffffff;fill-opacity:1;fill-rule:evenodd;stroke:none"
         d="m 224.93,671.596 c 0,0 0,0 -0.133,0.064 -0.133,0.064 -0.399,0.193 -0.863,0.313 -0.463,0.121 -1.124,0.232 -1.79,0.305 -0.665,0.073 -1.335,0.107 -1.949,0.12 -0.614,0.013 -1.172,0.005 -1.451,0 -0.279,-0.004 -0.279,-0.004 -0.279,-0.004" />
    </g>
    <g
       id="g3726"
       transform="matrix(1.25,0,0,-1.25,111.08455,1343.8692)">
      <path
         id="path3728"
         style="fill:#ffffff;fill-opacity:1;fill-rule:evenodd;stroke:none"
         d="m 224.209,671.364 c 0,0 0,0 -0.24,0.034 -0.241,0.034 -0.721,0.103 -1.258,0.116 -0.537,0.013 -1.129,-0.03 -1.734,-0.09 -0.606,-0.06 -1.224,-0.138 -1.833,-0.232 -0.61,-0.094 -1.211,-0.206 -1.886,-0.358 -0.675,-0.153 -1.424,-0.346 -1.799,-0.443 -0.374,-0.096 -0.374,-0.096 -0.374,-0.096" />
    </g>
    <g
       id="g3730"
       transform="matrix(1.25,0,0,-1.25,111.08455,1343.8692)">
      <path
         id="path3732"
         style="fill:#000000;fill-opacity:1;fill-rule:evenodd;stroke:none"
         d="m 226.841,672.489 c 0,0 0,0 -0.783,-0.34 -0.782,-0.339 -2.348,-1.018 -3.706,-1.735 -1.358,-0.717 -2.509,-1.471 -3.565,-2.103 -1.056,-0.632 -2.018,-1.142 -2.886,-1.453 -0.868,-0.311 -1.641,-0.424 -2.518,-0.434 -0.877,-0.009 -1.858,0.085 -2.669,-0.085 -0.811,-0.169 -1.453,-0.603 -1.858,-1.065 -0.406,-0.462 -0.576,-0.953 -0.623,-1.443 -0.047,-0.491 0.028,-0.981 0.275,-1.412 0.247,-0.431 0.664,-0.803 1.041,-0.737 0.378,0.066 0.715,0.57 1.206,0.888 0.491,0.318 1.136,0.45 1.632,0.422 0.495,-0.029 0.841,-0.218 0.745,-0.803 -0.096,-0.585 -0.635,-1.566 -1.083,-2.386 -0.449,-0.82 -0.807,-1.48 -1.269,-1.98 -0.463,-0.5 -1.028,-0.839 -1.557,-1.773 -0.528,-0.934 -1.018,-2.462 -1.564,-3.586 -0.546,-1.124 -1.148,-1.845 -1.175,-2.15 -0.028,-0.306 0.519,-0.197 0.906,-0.419 0.387,-0.223 0.614,-0.778 0.339,-1.514 -0.275,-0.735 -1.051,-1.651 -2.172,-3.423 -1.12,-1.771 -2.586,-4.397 -4.309,-6.893 -1.723,-2.495 -3.704,-4.861 -5.028,-6.798 -1.324,-1.937 -1.991,-3.446 -2.535,-4.657 -0.544,-1.212 -0.965,-2.126 -0.755,-2.757 0.211,-0.631 1.052,-0.979 2.024,-0.878 0.973,0.102 2.075,0.653 3.084,1.879 1.008,1.226 1.922,3.127 2.865,5.303 0.944,2.177 1.916,4.629 2.815,6.907 0.9,2.278 1.727,4.382 2.783,6.326 1.055,1.945 2.339,3.729 3.224,4.658 0.885,0.929 1.372,1.001 1.977,0.892 0.606,-0.108 1.332,-0.399 2.253,-1.11 0.921,-0.711 2.039,-1.842 3.424,-2.379 1.386,-0.537 3.04,-0.479 3.925,-0.356 0.885,0.124 1.001,0.312 0.987,0.617 -0.015,0.305 -0.16,0.725 -0.138,1.479 0.022,0.754 0.212,1.841 0.289,2.603 0.078,0.763 0.043,1.2 0.013,1.488 -0.03,0.288 -0.056,0.425 -0.079,0.583 -0.023,0.159 -0.043,0.338 0.003,0.636 0.046,0.297 0.16,0.712 0.216,1.146 0.057,0.433 0.057,0.886 0.047,1.244 -0.009,0.359 -0.028,0.623 0.123,0.821 0.151,0.198 0.471,0.33 0.726,0.566 0.255,0.236 0.443,0.575 0.613,0.858 0.17,0.283 0.321,0.509 0.434,0.698 0.113,0.189 0.189,0.34 0.302,0.557 0.113,0.216 0.264,0.499 0.452,0.66 0.189,0.16 0.415,0.198 0.623,0.49 0.207,0.292 0.396,0.839 0.583,1.314 0.188,0.474 0.374,0.876 0.542,1.369 0.169,0.494 0.32,1.078 0.47,1.607 0.151,0.528 0.302,0.999 0.529,1.584 0.226,0.585 0.528,1.283 0.82,1.811 0.293,0.528 0.575,0.887 0.679,1.198 0.104,0.311 0.028,0.575 0.019,0.811 -0.009,0.236 0.047,0.443 -0.019,0.622 -0.066,0.179 -0.254,0.33 -0.358,0.434 -0.104,0.104 -0.123,0.161 -0.104,0.472 0.019,0.311 0.076,0.877 0.028,1.235 -0.047,0.359 -0.198,0.51 -0.396,0.613 -0.198,0.104 -0.443,0.161 -0.773,0.123 -0.33,-0.038 -0.745,-0.17 -0.953,-0.236 -0.207,-0.066 -0.207,-0.066 -0.207,-0.066" />
    </g>
    <g
       id="g3734"
       transform="matrix(1.25,0,0,-1.25,111.08455,1343.8692)">
      <path
         id="path3736"
         style="fill:#ffffff;fill-opacity:1;fill-rule:evenodd;stroke:none"
         d="m 225.732,667.635 c -0.026,-0.426 -0.514,-1.036 -0.966,-1.062 -0.453,-0.026 -0.871,0.531 -0.845,0.958 0.026,0.426 0.496,0.722 0.949,0.748 0.453,0.027 0.888,-0.217 0.862,-0.644 z" />
    </g>
    <g
       id="g3738"
       transform="matrix(1.25,0,0,-1.25,111.08455,1343.8692)">
      <path
         id="path3740"
         style="fill:#ffffff;fill-opacity:1;fill-rule:evenodd;stroke:none"
         d="m 221.701,662.721 c 0,0 0,0 -0.138,0.123 -0.138,0.124 -0.413,0.37 -0.682,0.537 -0.268,0.167 -0.529,0.254 -0.834,0.225 -0.305,-0.029 -0.653,-0.174 -0.979,-0.566 -0.327,-0.392 -0.632,-1.03 -0.798,-1.567 -0.167,-0.537 -0.196,-0.972 -0.146,-1.357 0.051,-0.384 0.182,-0.718 0.414,-0.979 0.232,-0.261 0.566,-0.45 0.979,-0.639 0.414,-0.188 0.907,-0.377 1.27,-0.384 0.363,-0.007 0.595,0.167 0.871,0.377 0.275,0.211 0.594,0.457 0.819,0.82 0.225,0.363 0.356,0.842 0.334,1.19 -0.022,0.348 -0.196,0.566 -0.37,0.754 -0.174,0.189 -0.348,0.349 -0.457,0.574 -0.109,0.224 -0.152,0.515 -0.189,0.674 -0.036,0.16 -0.065,0.189 -0.079,0.203 -0.015,0.015 -0.015,0.015 -0.015,0.015" />
    </g>
    <g
       id="g3742"
       transform="matrix(1.25,0,0,-1.25,111.08455,1343.8692)">
      <path
         id="path3744"
         style="fill:#000000;fill-opacity:1;fill-rule:evenodd;stroke:none"
         d="m 220.004,663.069 c 0,0 0,0 -0.138,-0.123 -0.138,-0.124 -0.414,-0.37 -0.537,-0.617 -0.124,-0.247 -0.095,-0.493 -0.007,-0.711 0.087,-0.218 0.232,-0.406 0.37,-0.442 0.137,-0.037 0.268,0.079 0.493,0.05 0.225,-0.029 0.544,-0.203 0.827,-0.326 0.283,-0.123 0.53,-0.196 0.704,-0.189 0.174,0.008 0.275,0.095 0.268,0.29 -0.007,0.196 -0.123,0.501 -0.189,0.791 -0.065,0.29 -0.079,0.566 -0.203,0.747 -0.123,0.182 -0.355,0.269 -0.595,0.356 -0.239,0.087 -0.486,0.174 -0.624,0.21 -0.137,0.037 -0.166,0.022 -0.181,0.015 -0.014,-0.007 -0.014,-0.007 -0.014,-0.007" />
    </g>
    <g
       id="g3746"
       transform="matrix(1.25,0,0,-1.25,111.08455,1343.8692)">
      <path
         id="path3748"
         style="fill:#ffffff;fill-opacity:1;fill-rule:evenodd;stroke:#a9a9a9;stroke-width:0.80000001;stroke-linecap:butt;stroke-linejoin:round;stroke-miterlimit:10;stroke-dasharray:none;stroke-opacity:1"
         d="m 226.841,672.489 c 0,0 0,0 -0.783,-0.34 -0.782,-0.339 -2.348,-1.018 -3.706,-1.735 -1.358,-0.717 -2.509,-1.471 -3.565,-2.103 -1.056,-0.632 -2.018,-1.142 -2.886,-1.453 -0.868,-0.311 -1.641,-0.424 -2.518,-0.434 -0.877,-0.009 -1.858,0.085 -2.669,-0.085 -0.811,-0.169 -1.453,-0.603 -1.858,-1.065 -0.406,-0.462 -0.576,-0.953 -0.623,-1.443 -0.047,-0.491 0.028,-0.981 0.275,-1.412 0.247,-0.431 0.664,-0.803 1.041,-0.737 0.378,0.066 0.715,0.57 1.206,0.888 0.491,0.318 1.136,0.45 1.632,0.422 0.495,-0.029 0.841,-0.218 0.745,-0.803 -0.096,-0.585 -0.635,-1.566 -1.083,-2.386 -0.449,-0.82 -0.807,-1.48 -1.269,-1.98 -0.463,-0.5 -1.028,-0.839 -1.557,-1.773 -0.528,-0.934 -1.018,-2.462 -1.914,-4.282 -0.896,-1.82 -2.198,-3.933 -3.82,-6.244 -1.622,-2.31 -3.565,-4.819 -5.008,-6.564 -1.443,-1.745 -2.386,-2.726 -3.11,-3.601 -0.723,-0.875 -1.228,-1.644 -1.706,-2.888 -0.478,-1.243 -0.931,-2.959 -1.478,-4.289 -0.547,-1.33 -1.188,-2.273 -1.443,-2.848 -0.255,-0.576 -0.123,-0.783 0.027,-1.062 0.149,-0.279 0.316,-0.629 0.588,-1.172 0.272,-0.543 0.649,-1.279 0.941,-1.892 0.293,-0.613 0.5,-1.103 0.576,-1.471 0.075,-0.368 0.018,-0.613 0.113,-0.906 0.094,-0.292 0.339,-0.631 0.585,-0.801 0.245,-0.17 0.49,-0.17 0.707,-0.095 0.217,0.076 0.406,0.227 0.66,0.302 0.255,0.076 0.575,0.076 0.877,0.029 0.302,-0.048 0.585,-0.142 0.793,-0.104 0.207,0.038 0.339,0.207 0.405,0.462 0.066,0.255 0.066,0.594 -0.009,1.019 -0.076,0.424 -0.227,0.933 -0.321,1.207 -0.094,0.273 -0.132,0.311 0.085,0.292 0.217,-0.019 0.688,-0.094 1.169,-0.207 0.481,-0.114 0.972,-0.264 1.519,-0.538 0.547,-0.273 1.15,-0.67 1.688,-1.066 0.538,-0.396 1.009,-0.792 1.403,-1.186 0.394,-0.394 0.711,-0.786 0.943,-1.127 0.232,-0.341 0.38,-0.63 0.46,-1.053 0.079,-0.424 0.09,-0.982 0.018,-1.356 -0.073,-0.374 -0.229,-0.564 -0.274,-0.692 -0.044,-0.128 0.023,-0.195 0.235,-0.318 0.212,-0.123 0.569,-0.301 1.066,-0.497 0.496,-0.195 1.133,-0.407 1.713,-0.574 0.58,-0.168 1.105,-0.291 1.602,-0.341 0.496,-0.05 0.965,-0.028 1.49,-0.039 0.524,-0.011 1.105,-0.056 1.468,-0.089 0.362,-0.034 0.507,-0.056 0.685,-0.118 0.177,-0.063 0.387,-0.165 0.625,-0.227 0.239,-0.062 0.507,-0.085 0.697,-0.085 0.19,0 0.301,0.023 0.34,0.101 0.039,0.078 0.006,0.212 -0.083,0.323 -0.09,0.112 -0.235,0.201 -0.201,0.257 0.033,0.056 0.245,0.078 0.552,0.101 0.307,0.022 0.709,0.044 0.994,0.111 0.284,0.067 0.452,0.179 0.496,0.29 0.045,0.112 -0.033,0.224 -0.257,0.424 -0.223,0.201 -0.591,0.492 -0.965,0.693 -0.374,0.2 -0.753,0.312 -1.222,0.307 -0.469,-0.006 -1.027,-0.129 -1.585,-0.213 -0.558,-0.083 -1.116,-0.128 -1.786,-0.094 -0.67,0.033 -1.451,0.145 -2.009,0.217 -0.558,0.073 -0.893,0.106 -1.06,0.212 -0.168,0.106 -0.168,0.285 -0.084,0.458 0.084,0.173 0.251,0.34 0.508,0.603 0.257,0.262 0.603,0.619 0.91,0.92 0.306,0.302 0.574,0.547 0.865,1.078 0.29,0.53 0.602,1.344 0.948,2.74 0.346,1.395 0.726,3.37 1.033,4.643 0.307,1.272 0.541,1.841 0.742,2.584 0.201,0.742 0.368,1.657 0.536,2.572 0.167,0.915 0.334,1.831 0.831,3.036 0.497,1.206 1.323,2.701 1.979,3.774 0.657,1.072 1.144,1.722 1.706,2.359 0.562,0.637 1.198,1.262 1.806,1.804 0.608,0.541 1.189,0.999 1.624,1.289 0.435,0.29 0.726,0.413 0.932,0.48 0.207,0.067 0.329,0.078 0.508,0.061 0.178,-0.017 0.413,-0.061 0.586,-0.173 0.173,-0.112 0.285,-0.29 0.374,-0.469 0.089,-0.178 0.156,-0.357 0.229,-0.446 0.072,-0.089 0.15,-0.089 0.251,-0.117 0.1,-0.028 0.223,-0.084 0.357,-0.095 0.134,-0.011 0.279,0.022 0.525,0.134 0.245,0.111 0.591,0.301 0.837,0.468 0.245,0.168 0.39,0.313 0.58,0.346 0.19,0.034 0.424,-0.044 0.625,0.012 0.201,0.055 0.368,0.245 0.452,0.385 0.084,0.139 0.084,0.229 -0.011,0.262 -0.095,0.033 -0.285,0.011 -0.313,0.061 -0.027,0.051 0.106,0.173 0.313,0.318 0.206,0.146 0.485,0.313 0.675,0.503 0.19,0.189 0.29,0.402 0.268,0.524 -0.022,0.123 -0.167,0.157 -0.391,0.214 -0.224,0.058 -0.527,0.14 -0.771,0.138 -0.244,-10e-4 -0.429,-0.087 -0.597,-0.15 -0.169,-0.063 -0.321,-0.102 -0.449,-0.198 -0.129,-0.096 -0.235,-0.248 -0.38,-0.35 -0.145,-0.103 -0.33,-0.155 -0.548,-0.159 -0.218,-0.003 -0.469,0.043 -0.598,0.09 -0.129,0.046 -0.135,0.092 -0.175,0.198 -0.04,0.105 -0.112,0.27 -0.218,0.462 -0.106,0.191 -0.244,0.409 -0.373,0.621 -0.129,0.211 -0.248,0.416 -0.333,0.752 -0.085,0.337 -0.135,0.805 -0.122,1.343 0.013,0.539 0.09,1.149 0.172,1.608 0.081,0.459 0.167,0.769 0.193,1.142 0.026,0.374 -0.009,0.811 -0.039,1.099 -0.03,0.288 -0.056,0.425 -0.079,0.583 -0.023,0.159 -0.043,0.338 0.003,0.636 0.046,0.297 0.16,0.712 0.216,1.146 0.057,0.433 0.057,0.886 0.047,1.244 -0.009,0.359 -0.028,0.623 0.123,0.821 0.151,0.198 0.471,0.33 0.726,0.566 0.255,0.236 0.443,0.575 0.613,0.858 0.17,0.283 0.321,0.509 0.434,0.698 0.113,0.189 0.189,0.34 0.302,0.557 0.113,0.216 0.264,0.499 0.452,0.66 0.189,0.16 0.415,0.198 0.623,0.49 0.207,0.292 0.396,0.839 0.583,1.314 0.188,0.474 0.374,0.876 0.542,1.369 0.169,0.494 0.32,1.078 0.47,1.607 0.151,0.528 0.302,0.999 0.529,1.584 0.226,0.585 0.528,1.283 0.82,1.811 0.293,0.528 0.575,0.887 0.679,1.198 0.104,0.311 0.028,0.575 0.019,0.811 -0.009,0.236 0.047,0.443 -0.019,0.622 -0.066,0.179 -0.254,0.33 -0.358,0.434 -0.104,0.104 -0.123,0.161 -0.104,0.472 0.019,0.311 0.076,0.877 0.028,1.235 -0.047,0.359 -0.198,0.51 -0.396,0.613 -0.198,0.104 -0.443,0.161 -0.773,0.123 -0.33,-0.038 -0.745,-0.17 -0.953,-0.236 -0.207,-0.066 -0.207,-0.066 -0.207,-0.066" />
    </g>
    <g
       id="g3750"
       transform="matrix(1.25,0,0,-1.25,111.08455,1343.8692)">
      <path
         id="path3752"
         style="fill:none;stroke:#000000;stroke-width:0.80000001;stroke-linecap:butt;stroke-linejoin:round;stroke-miterlimit:10;stroke-dasharray:none;stroke-opacity:1"
         d="m 228.841,667.63 c 0,0 0,0 0.06,-0.138 0.061,-0.137 0.181,-0.412 0.344,-0.94 0.163,-0.528 0.369,-1.309 0.567,-2.283 0.197,-0.975 0.386,-2.143 0.528,-3.284 0.141,-1.142 0.236,-2.258 0.283,-2.817 0.047,-0.558 0.047,-0.558 0.047,-0.558" />
    </g>
    <g
       id="g3754"
       transform="matrix(1.25,0,0,-1.25,111.08455,1343.8692)">
      <path
         id="path3756"
         style="fill:none;stroke:#000000;stroke-width:0.80000001;stroke-linecap:butt;stroke-linejoin:round;stroke-miterlimit:10;stroke-dasharray:none;stroke-opacity:1"
         d="m 229.567,669.05 c 0,0 0,0 0.26,0.01 0.261,0.01 0.783,0.03 1.305,0.01 0.522,-0.02 1.043,-0.08 1.638,-0.188 0.594,-0.109 1.261,-0.268 1.595,-0.347 0.333,-0.079 0.333,-0.079 0.333,-0.079" />
    </g>
    <g
       id="g3758"
       transform="matrix(1.25,0,0,-1.25,111.08455,1343.8692)">
      <path
         id="path3760"
         style="fill:none;stroke:#000000;stroke-width:0.80000001;stroke-linecap:butt;stroke-linejoin:round;stroke-miterlimit:10;stroke-dasharray:none;stroke-opacity:1"
         d="m 224.93,671.596 c 0,0 0,0 -0.133,0.064 -0.133,0.064 -0.399,0.193 -0.863,0.313 -0.463,0.121 -1.124,0.232 -1.79,0.305 -0.665,0.073 -1.335,0.107 -1.949,0.12 -0.614,0.013 -1.172,0.005 -1.451,0 -0.279,-0.004 -0.279,-0.004 -0.279,-0.004" />
    </g>
    <g
       id="g3762"
       transform="matrix(1.25,0,0,-1.25,111.08455,1343.8692)">
      <path
         id="path3764"
         style="fill:none;stroke:#000000;stroke-width:0.80000001;stroke-linecap:butt;stroke-linejoin:round;stroke-miterlimit:10;stroke-dasharray:none;stroke-opacity:1"
         d="m 224.209,671.364 c 0,0 0,0 -0.24,0.034 -0.241,0.034 -0.721,0.103 -1.258,0.116 -0.537,0.013 -1.129,-0.03 -1.734,-0.09 -0.606,-0.06 -1.224,-0.138 -1.833,-0.232 -0.61,-0.094 -1.211,-0.206 -1.886,-0.358 -0.675,-0.153 -1.424,-0.346 -1.799,-0.443 -0.374,-0.096 -0.374,-0.096 -0.374,-0.096" />
    </g>
    <g
       id="g3766"
       transform="matrix(1.25,0,0,-1.25,111.08455,1343.8692)">
      <path
         id="path3768"
         style="fill:#000000;fill-opacity:1;fill-rule:evenodd;stroke:none"
         d="m 194.419,627.582 c 0,0 0,0 -0.287,-0.568 -0.287,-0.568 -0.862,-1.704 -1.305,-2.404 -0.443,-0.699 -0.754,-0.963 -2.024,-1.712 -1.27,-0.749 -3.498,-1.983 -5.474,-2.951 -1.976,-0.967 -3.7,-1.667 -6.043,-2.314 -2.344,-0.646 -5.307,-1.239 -7.774,-1.622 -2.468,-0.383 -4.441,-0.557 -7.867,-0.515 -3.427,0.042 -8.308,0.3 -10.586,1.103 -2.279,0.802 -1.956,2.149 -0.286,2.58 1.67,0.431 4.687,-0.054 8.124,-0.291 3.437,-0.236 7.294,-0.225 9.961,-0.01 2.667,0.216 4.143,0.636 5.151,1.007 1.007,0.371 1.546,0.695 1.654,1.045 0.108,0.35 -0.216,0.727 -0.593,0.7 -0.377,-0.027 -0.808,-0.458 -1.966,-0.835 -1.158,-0.377 -3.044,-0.7 -5.387,-0.835 -2.344,-0.135 -5.145,-0.081 -8.001,0.189 -2.855,0.269 -5.764,0.754 -7.758,0.727 -1.993,-0.027 -3.07,-0.566 -3.798,-1.347 -0.727,-0.781 -1.104,-1.805 -0.35,-2.774 0.754,-0.97 2.64,-1.886 5.36,-2.506 2.721,-0.619 6.277,-0.942 9.805,-0.968 3.528,-0.025 7.029,0.248 10.549,0.83 3.52,0.583 7.058,1.475 9.66,2.352 2.601,0.877 4.265,1.737 6.07,2.493 1.804,0.755 3.749,1.405 4.888,1.751 1.139,0.347 1.471,0.39 1.854,0.259 0.384,-0.131 0.82,-0.435 0.972,0.072 0.152,0.508 0.022,1.829 0.08,3.033 0.058,1.204 0.304,2.293 0.428,2.837 0.123,0.544 0.123,0.544 0.123,0.544" />
    </g>
    <g
       id="g3770"
       transform="matrix(1.25,0,0,-1.25,111.08455,1343.8692)">
      <path
         id="path3772"
         style="fill:#d5f6ff;fill-opacity:1;fill-rule:evenodd;stroke:#00ccff;stroke-width:2;stroke-linecap:round;stroke-linejoin:round;stroke-miterlimit:10;stroke-dasharray:none;stroke-opacity:1"
         d="m 131.789,755.036 27.163,27.163 27.163,-27.163 -6.791,-6.791 -13.581,13.581 0,-40.744 -13.582,0 0,40.744 -13.581,-13.581 -6.791,6.791" />
    </g>
    <g
       style="fill:#d5f6ff;stroke:#00ccff"
       id="g3774"
       transform="matrix(1.25,0,0,-1.25,111.08455,1343.8692)">
      <path
         id="path3776"
         style="fill:#d5f6ff;fill-opacity:1;fill-rule:evenodd;stroke:#00ccff;stroke-width:2;stroke-linecap:round;stroke-linejoin:round;stroke-miterlimit:10;stroke-dasharray:none;stroke-opacity:1"
         d="m 193.778,748.245 27.163,-27.163 27.163,27.163 -6.791,6.791 -13.581,-13.582 0,40.745 -13.582,0 0,-40.745 -13.581,13.582 -6.791,-6.791" />
    </g>
    <g
       id="g3778"
       transform="matrix(1.25,0,0,-1.25,111.08455,1343.8692)">
      <path
         id="path3780"
         style="fill:#000000;fill-opacity:1;fill-rule:evenodd;stroke:none"
         d="m 226.841,672.489 c 0,0 0,0 -0.783,-0.34 -0.782,-0.339 -2.348,-1.018 -3.706,-1.735 -1.358,-0.717 -2.509,-1.471 -3.565,-2.103 -1.056,-0.632 -2.018,-1.142 -2.886,-1.453 -0.868,-0.311 -1.641,-0.424 -2.518,-0.434 -0.877,-0.009 -1.858,0.085 -2.669,-0.085 -0.811,-0.169 -1.453,-0.603 -1.858,-1.065 -0.406,-0.462 -0.576,-0.953 -0.623,-1.443 -0.047,-0.491 0.028,-0.981 0.275,-1.412 0.247,-0.431 0.664,-0.803 1.041,-0.737 0.378,0.066 0.715,0.57 1.206,0.888 0.491,0.318 1.136,0.45 1.632,0.422 0.495,-0.029 0.841,-0.218 0.745,-0.803 -0.096,-0.585 -0.635,-1.566 -1.083,-2.386 -0.449,-0.82 -0.807,-1.48 -1.269,-1.98 -0.463,-0.5 -1.028,-0.839 -1.557,-1.773 -0.528,-0.934 -1.018,-2.462 -1.564,-3.586 -0.546,-1.124 -1.148,-1.845 -1.175,-2.15 -0.028,-0.306 0.519,-0.197 0.906,-0.419 0.387,-0.223 0.614,-0.778 0.339,-1.514 -0.275,-0.735 -1.051,-1.651 -2.172,-3.423 -1.12,-1.771 -2.586,-4.397 -4.309,-6.893 -1.723,-2.495 -3.704,-4.861 -5.028,-6.798 -1.324,-1.937 -1.991,-3.446 -2.535,-4.657 -0.544,-1.212 -0.965,-2.126 -0.755,-2.757 0.211,-0.631 1.052,-0.979 2.024,-0.878 0.973,0.102 2.075,0.653 3.084,1.879 1.008,1.226 1.922,3.127 2.865,5.303 0.944,2.177 1.916,4.629 2.815,6.907 0.9,2.278 1.727,4.382 2.783,6.326 1.055,1.945 2.339,3.729 3.224,4.658 0.885,0.929 1.372,1.001 1.977,0.892 0.606,-0.108 1.332,-0.399 2.253,-1.11 0.921,-0.711 2.039,-1.842 3.424,-2.379 1.386,-0.537 3.04,-0.479 3.925,-0.356 0.885,0.124 1.001,0.312 0.987,0.617 -0.015,0.305 -0.16,0.725 -0.138,1.479 0.022,0.754 0.212,1.841 0.289,2.603 0.078,0.763 0.043,1.2 0.013,1.488 -0.03,0.288 -0.056,0.425 -0.079,0.583 -0.023,0.159 -0.043,0.338 0.003,0.636 0.046,0.297 0.16,0.712 0.216,1.146 0.057,0.433 0.057,0.886 0.047,1.244 -0.009,0.359 -0.028,0.623 0.123,0.821 0.151,0.198 0.471,0.33 0.726,0.566 0.255,0.236 0.443,0.575 0.613,0.858 0.17,0.283 0.321,0.509 0.434,0.698 0.113,0.189 0.189,0.34 0.302,0.557 0.113,0.216 0.264,0.499 0.452,0.66 0.189,0.16 0.415,0.198 0.623,0.49 0.207,0.292 0.396,0.839 0.583,1.314 0.188,0.474 0.374,0.876 0.542,1.369 0.169,0.494 0.32,1.078 0.47,1.607 0.151,0.528 0.302,0.999 0.529,1.584 0.226,0.585 0.528,1.283 0.82,1.811 0.293,0.528 0.575,0.887 0.679,1.198 0.104,0.311 0.028,0.575 0.019,0.811 -0.009,0.236 0.047,0.443 -0.019,0.622 -0.066,0.179 -0.254,0.33 -0.358,0.434 -0.104,0.104 -0.123,0.161 -0.104,0.472 0.019,0.311 0.076,0.877 0.028,1.235 -0.047,0.359 -0.198,0.51 -0.396,0.613 -0.198,0.104 -0.443,0.161 -0.773,0.123 -0.33,-0.038 -0.745,-0.17 -0.953,-0.236 -0.207,-0.066 -0.207,-0.066 -0.207,-0.066" />
    </g>
    <g
       id="g3782"
       transform="matrix(1.25,0,0,-1.25,111.08455,1343.8692)">
      <path
         id="path3784"
         style="fill:#ffffff;fill-opacity:1;fill-rule:evenodd;stroke:none"
         d="m 221.701,662.721 c 0,0 0,0 -0.138,0.123 -0.138,0.124 -0.413,0.37 -0.682,0.537 -0.268,0.167 -0.529,0.254 -0.834,0.225 -0.305,-0.029 -0.653,-0.174 -0.979,-0.566 -0.327,-0.392 -0.632,-1.03 -0.798,-1.567 -0.167,-0.537 -0.196,-0.972 -0.146,-1.357 0.051,-0.384 0.182,-0.718 0.414,-0.979 0.232,-0.261 0.566,-0.45 0.979,-0.639 0.414,-0.188 0.907,-0.377 1.27,-0.384 0.363,-0.007 0.595,0.167 0.871,0.377 0.275,0.211 0.594,0.457 0.819,0.82 0.225,0.363 0.356,0.842 0.334,1.19 -0.022,0.348 -0.196,0.566 -0.37,0.754 -0.174,0.189 -0.348,0.349 -0.457,0.574 -0.109,0.224 -0.152,0.515 -0.189,0.674 -0.036,0.16 -0.065,0.189 -0.079,0.203 -0.015,0.015 -0.015,0.015 -0.015,0.015" />
    </g>
    <g
       id="g3786"
       transform="matrix(1.25,0,0,-1.25,111.08455,1343.8692)">
      <path
         id="path3788"
         style="fill:#000000;fill-opacity:1;fill-rule:evenodd;stroke:none"
         d="m 220.004,663.069 c 0,0 0,0 -0.138,-0.123 -0.138,-0.124 -0.414,-0.37 -0.537,-0.617 -0.124,-0.247 -0.095,-0.493 -0.007,-0.711 0.087,-0.218 0.232,-0.406 0.37,-0.442 0.137,-0.037 0.268,0.079 0.493,0.05 0.225,-0.029 0.544,-0.203 0.827,-0.326 0.283,-0.123 0.53,-0.196 0.704,-0.189 0.174,0.008 0.275,0.095 0.268,0.29 -0.007,0.196 -0.123,0.501 -0.189,0.791 -0.065,0.29 -0.079,0.566 -0.203,0.747 -0.123,0.182 -0.355,0.269 -0.595,0.356 -0.239,0.087 -0.486,0.174 -0.624,0.21 -0.137,0.037 -0.166,0.022 -0.181,0.015 -0.014,-0.007 -0.014,-0.007 -0.014,-0.007" />
    </g>
    <g
       id="g3790"
       transform="matrix(1.25,0,0,-1.25,111.08455,1343.8692)">
      <path
         id="path3792"
         style="fill:#ffffff;fill-opacity:1;fill-rule:evenodd;stroke:none"
         d="m 225.732,667.635 c -0.026,-0.426 -0.514,-1.036 -0.966,-1.062 -0.453,-0.026 -0.871,0.531 -0.845,0.958 0.026,0.426 0.496,0.722 0.949,0.748 0.453,0.027 0.888,-0.217 0.862,-0.644 z" />
    </g>
  </g>
</svg>
