<?xml version="1.0" encoding="utf-8"?>
<!-- Generator: Adobe Illustrator 27.9.0, SVG Export Plug-In . SVG Version: 6.00 Build 0)  -->
<svg version="1.1" xmlns="http://www.w3.org/2000/svg" xmlns:xlink="http://www.w3.org/1999/xlink" x="0px" y="0px"
	 viewBox="0 0 437.22 136.91" style="enable-background:new 0 0 437.22 136.91;" xml:space="preserve">
<style type="text/css">
	.st0{fill:#065597;}
	.st1{fill:#86AACB;}
	.st2{fill:none;stroke:#230000;stroke-width:3;stroke-miterlimit:10;}
	.st3{fill:#230000;}
	.st4{fill:none;}
	.st5{fill:#FFFFFF;}
	.st6{display:none;}
	.st7{display:inline;opacity:0.5;}
</style>
<g id="Layer_1">
	<g>
		<path class="st0" d="M102.58,4.15c6.62-1.15,16.56-2.02,26.78-2.02c13.97,0,23.47,2.3,29.95,7.78c5.33,4.46,8.35,11.23,8.35,19.44
			c0,12.53-8.5,21.02-17.57,24.34v0.43c6.91,2.59,11.09,9.36,13.54,18.72c3.02,12.1,5.62,23.33,7.63,27.07h-18.29
			c-1.44-2.88-3.74-10.8-6.48-22.9c-2.74-12.67-7.34-16.7-17.42-16.99h-8.93v39.89h-17.57V4.15z M120.15,47.06h10.51
			c11.95,0,19.44-6.34,19.44-15.98c0-10.66-7.49-15.55-19.01-15.55c-5.62,0-9.22,0.43-10.94,0.86V47.06z"/>
		<path class="st0" d="M191.57,99.91V2.86h20.16l25.06,41.62c6.48,10.8,12.1,22.03,16.56,32.54h0.29
			c-1.15-12.96-1.58-25.49-1.58-40.32V2.86h16.42v97.05h-18.29l-25.34-42.62c-6.19-10.66-12.67-22.61-17.42-33.55l-0.43,0.14
			c0.72,12.53,0.86,25.34,0.86,41.33v34.7H191.57z"/>
		<path class="st0" d="M350.26,56.86h-36.58v28.51h40.9v14.54h-58.61V2.86h56.45V17.4h-38.74v25.06h36.58V56.86z"/>
		<path class="st0" d="M377.19,2.86h17.71v82.22h39.89v14.83h-57.6V2.86z"/>
	</g>
	<g>
		<path class="st1" d="M360.41,119.87l-1.07-0.84c-3.61-2.89-4.68-4.26-4.68-6.44c-0.07-2.39,1.81-4.39,4.2-4.46
			c0.17-0.01,0.34,0,0.51,0.01c3.54,0,4.56,1.62,4.79,2.04c0.26,0.61,0.43,1.26,0.51,1.92c0,0.3,0,0.49,0.3,0.49
			s0.26-0.27,0.26-0.88c0-2.6,0.16-3.87,0.16-4.06c0-0.19-0.07-0.27-0.39-0.27c-0.45-0.02-0.89-0.08-1.33-0.19
			c-1.17-0.27-2.37-0.4-3.57-0.39c-4.86,0-7.94,2.8-7.94,6.9c0,2.6,0.92,4.98,4.98,8.31l1.73,1.44c3.29,2.73,4.33,4.26,4.33,6.9
			c0,2.82-2.29,5.11-5.11,5.11c-0.12,0-0.24,0-0.36-0.01c-2.57,0-5.1-1.08-5.67-3.91c-0.09-0.48-0.13-0.96-0.12-1.44
			c0-0.3,0-0.42-0.27-0.42c-0.27,0-0.26,0.19-0.3,0.61c-0.04,0.42-0.19,2.15-0.19,4.06c0,0.27,0,0.48,0,0.64
			c0.01,0.14-0.09,0.25-0.23,0.26c-0.04,0-0.07,0-0.1-0.02c-1.21-0.54-2.29-1.33-3.18-2.32c-2.22-2.38-4.84-5.77-7.97-9.82
			c3.45-3.18,4.63-6.01,4.63-8.85c-0.04-2.05-1.01-3.97-2.64-5.21c-2.08-1.25-4.5-1.83-6.93-1.66c-1.18,0-4.1,0.12-4.52,0.12
			c-0.19,0-2.61-0.12-4.33-0.12c-0.42,0-0.61,0.09-0.61,0.32c0,0.23,0.14,0.23,0.3,0.23c0.44-0.01,0.87,0.03,1.3,0.12
			c1.27,0.26,1.57,0.88,1.65,2.18s0.09,2.3,0.09,8.27v6.74c0,3.68,0,6.71-0.2,8.31c-0.14,1.11-0.35,1.95-1.11,2.11
			c-0.37,0.09-0.76,0.14-1.14,0.16c-0.23,0-0.32,0.12-0.32,0.23s0.2,0.3,0.62,0.3c1.14,0,3.57-0.12,3.59-0.12
			c0.03,0,2.61,0.12,4.72,0.12c0.42,0,0.61-0.12,0.61-0.3s-0.07-0.23-0.3-0.23c-0.23,0-1.18-0.09-1.72-0.16
			c-1.15-0.16-1.44-1-1.44-2.11c-0.19-1.6-0.19-4.63-0.19-8.31v-0.92c0-0.19,0-0.3,0.26-0.3l4.72,0.09
			c0.19-0.01,0.37,0.07,0.49,0.22c0.77,1,2.57,3.57,4.19,5.67c2.18,2.89,3.52,4.75,5.17,5.63c1.27,0.62,2.69,0.87,4.1,0.74h1.08
			c0.82,0.01,1.64,0.1,2.44,0.27c0.92,0.18,1.86,0.27,2.8,0.26c2.04,0.06,4.06-0.51,5.77-1.62c2.03-1.48,3.24-3.84,3.25-6.35
			C366,125.82,364.93,123.44,360.41,119.87z M338.88,122.14c-0.87,0.53-1.87,0.78-2.89,0.72c-1.37,0.06-2.74-0.15-4.03-0.61
			c-0.17-0.09-0.27-0.27-0.26-0.46v-12.53c-0.01-0.2,0.11-0.39,0.3-0.46c0.85-0.17,1.71-0.25,2.57-0.23c4.1,0,6.63,2.89,6.63,7.67
			C341.16,119.15,340.22,121.21,338.88,122.14z"/>
		<path class="st1" d="M201.67,118.46c0-5.98,0-7.04-0.07-8.27c-0.07-1.23-0.38-1.92-1.65-2.18c-0.43-0.08-0.86-0.12-1.3-0.12
			c-0.16,0-0.3-0.09-0.3-0.23s0.19-0.32,0.61-0.32c1.72,0,4.06,0.12,4.33,0.12s2.64-0.12,3.8-0.12c0.42,0,0.61,0.09,0.61,0.32
			c0,0.23-0.14,0.23-0.3,0.23c-0.32,0.01-0.64,0.05-0.95,0.12c-1.04,0.14-1.34,0.84-1.44,2.18s-0.09,2.3-0.09,8.27v5.37
			c0,5.51,1.23,7.88,2.89,9.46c1.54,1.49,3.64,2.26,5.77,2.11c2.31-0.02,4.5-1.02,6.02-2.76c1.76-2.18,2.22-5.44,2.22-9.38v-4.79
			c0-5.98,0-7.04-0.09-8.27c-0.09-1.23-0.38-1.92-1.65-2.18c-0.43-0.08-0.86-0.12-1.3-0.12c-0.16,0-0.3-0.09-0.3-0.23
			s0.19-0.32,0.61-0.32c1.73,0,3.84,0.12,4.07,0.12s2.06-0.12,3.2-0.12c0.43,0,0.62,0.09,0.62,0.32c0,0.23-0.16,0.23-0.3,0.23
			c-0.33-0.01-0.65,0.03-0.97,0.12c-1.02,0.19-1.34,0.84-1.44,2.18s-0.07,2.3-0.07,8.27v4.1c0,4.14-0.46,8.66-3.52,11.46
			c-2.16,1.94-4.99,2.98-7.9,2.89c-2.87,0.08-5.68-0.88-7.9-2.71c-1.88-1.8-3.33-4.49-3.33-10.1L201.67,118.46z"/>
		<path class="st1" d="M233.65,131.1c0.07,3.13,0.46,4.13,1.44,4.45c0.62,0.15,1.26,0.22,1.91,0.23c0.2,0,0.32,0,0.32,0.23
			s-0.23,0.3-0.69,0.3c-2.18,0-3.72-0.12-4.06-0.12s-1.96,0.12-3.68,0.12c-0.39,0-0.62,0-0.62-0.3s0.12-0.23,0.32-0.23
			c0.53,0,1.05-0.08,1.56-0.23c0.97-0.27,1.15-1.44,1.15-4.86v-21.96c0-1.44,0.12-1.92,0.42-1.92c0.3,0,0.95,0.85,1.34,1.23
			c0.56,0.65,6.28,6.83,12.18,13.15c3.78,4.06,7.97,8.66,9.2,9.99l-0.33-19.47c0-2.48-0.3-3.33-1.44-3.64
			c-0.62-0.12-1.25-0.19-1.88-0.19c-0.27,0-0.3-0.12-0.3-0.27c0-0.16,0.3-0.27,0.77-0.27c1.72,0,3.55,0.12,3.98,0.12
			s1.67-0.12,3.25-0.12c0.42,0,0.69,0,0.69,0.27c0,0.27-0.16,0.27-0.42,0.27c-0.31,0-0.62,0.03-0.92,0.12
			c-1.26,0.26-1.44,1.11-1.44,3.41l-0.07,22.45c0,2.53-0.09,2.71-0.35,2.71s-0.77-0.42-2.8-2.44c-0.42-0.39-5.93-6.02-10-10.39
			c-4.5-4.81-8.83-9.6-10-10.97L233.65,131.1z"/>
		<path class="st1" d="M267.85,125.2c0,3.68,0,6.71,0.2,8.31c0.12,1.11,0.35,1.95,1.44,2.11c0.53,0,1.44,0.16,1.73,0.16
			s0.3,0.12,0.3,0.23c0,0.12-0.19,0.3-0.62,0.3c-2.11,0-4.52-0.12-4.71-0.12c-0.19,0-2.6,0.12-3.75,0.12c-0.42,0-0.62-0.09-0.62-0.3
			c0-0.22,0.09-0.23,0.32-0.23c0.38-0.02,0.77-0.07,1.14-0.16c0.77-0.16,0.97-1,1.11-2.11c0.2-1.6,0.2-4.63,0.2-8.31v-6.74
			c0-5.98,0-7.04-0.09-8.27c-0.09-1.23-0.46-1.95-1.3-2.15c-0.39-0.1-0.78-0.14-1.18-0.14c-0.16,0-0.3-0.09-0.3-0.23
			s0.19-0.32,0.61-0.32c1.27,0,3.68,0.12,3.87,0.12s2.6-0.12,3.75-0.12c0.42,0,0.62,0.09,0.62,0.32c0,0.23-0.16,0.23-0.32,0.23
			c-0.32,0.01-0.64,0.05-0.95,0.12c-1.04,0.19-1.34,0.84-1.44,2.18c-0.1,1.34-0.09,2.3-0.09,8.27L267.85,125.2z"/>
		<path class="st1" d="M288.47,131.64c2.22-5.14,7.35-18.51,8.2-21.26c0.18-0.46,0.29-0.95,0.35-1.44c0.02-0.37-0.18-0.71-0.51-0.88
			c-0.47-0.12-0.96-0.17-1.44-0.14c-0.22,0-0.42,0-0.42-0.23c0-0.23,0.23-0.32,0.85-0.32c1.53,0,3.29,0.12,3.75,0.12
			c0.23,0,1.88-0.12,2.99-0.12c0.42,0,0.65,0.09,0.65,0.27s-0.16,0.27-0.46,0.27c-0.64-0.02-1.27,0.13-1.83,0.45
			c-0.51,0.35-1.08,1-2.11,3.61c-0.43,1.07-2.34,5.67-4.33,10.38c-2.32,5.6-4.06,9.73-4.94,11.55c-1.07,2.3-1.23,2.89-1.6,2.89
			c-0.38,0-0.66-0.53-1.44-2.38l-9.38-23.47c-0.85-2.15-1.44-2.57-2.76-2.89c-0.47-0.1-0.96-0.15-1.44-0.14
			c-0.23,0-0.3-0.12-0.3-0.27c0-0.16,0.38-0.27,1-0.27c1.83,0,4.01,0.12,4.48,0.12s2.11-0.12,3.57-0.12c0.69,0,1.04,0.09,1.04,0.27
			s-0.12,0.27-0.39,0.27c-0.49-0.02-0.98,0.04-1.44,0.19c-0.32,0.12-0.52,0.43-0.49,0.77c0.22,1.09,0.57,2.16,1.02,3.18
			L288.47,131.64z"/>
		<path class="st1" d="M307.95,118.46c0-5.98,0-7.04,0-8.27c0-1.23-0.39-1.92-1.66-2.18c-0.43-0.08-0.86-0.12-1.3-0.12
			c-0.14,0-0.3-0.09-0.3-0.23s0.19-0.32,0.61-0.32c1.73,0,4.14,0.12,4.33,0.12c0.19,0,7.9,0,8.78,0c0.55-0.02,1.1-0.09,1.65-0.19
			c0.19,0,0.35-0.2,0.53-0.2s0.16,0.16,0.16,0.35c0,0.19-0.19,0.74-0.3,1.8c0,0.38-0.12,2.06-0.2,2.53c0,0.19-0.12,0.42-0.26,0.42
			s-0.3-0.19-0.3-0.49c0.01-0.49-0.07-0.98-0.23-1.44c-0.27-0.61-0.65-1.07-2.73-1.3c-0.65-0.07-4.82-0.12-5.24-0.12
			c-0.16,0-0.23,0.12-0.23,0.39v10.57c0,0.27,0,0.39,0.23,0.39c0.49,0,5.21,0,6.09-0.09c0.88-0.09,1.44-0.14,1.79-0.53
			c0.35-0.39,0.43-0.49,0.58-0.49s0.19,0,0.19,0.3c0,0.3-0.19,0.88-0.3,2.14c-0.07,0.77-0.14,2.19-0.14,2.45
			c0,0.26,0,0.74-0.27,0.74c-0.27,0-0.27-0.16-0.27-0.35c0.02-0.43-0.03-0.86-0.14-1.27c-0.16-0.53-0.51-1.18-1.99-1.34
			c-1.04-0.12-4.84-0.19-5.49-0.19c-0.14-0.01-0.25,0.09-0.26,0.23c0,0.02,0,0.03,0,0.05v3.36c0,1.3,0,5.77,0,6.55
			c0.12,2.64,0.69,3.15,4.45,3.15c1.24,0.07,2.48-0.08,3.67-0.43c1-0.42,1.44-1.18,1.73-2.76c0.07-0.42,0.14-0.56,0.35-0.56
			c0.2,0,0.23,0.3,0.23,0.56s-0.32,2.89-0.51,3.72c-0.19,0.84-0.58,1-2.06,1c-5.77,0-8.36-0.23-9.47-0.23
			c-0.19,0-2.6,0.12-3.75,0.12c-0.42,0-0.61-0.09-0.61-0.3c0-0.22,0.07-0.23,0.3-0.23c0.39-0.02,0.78-0.07,1.15-0.16
			c0.77-0.16,0.95-1,1.11-2.11c0.19-1.6,0.19-4.63,0.19-8.31L307.95,118.46z"/>
		<path class="st1" d="M376.28,125.2c0,3.68,0,6.71,0.19,8.31c0.12,1.11,0.35,1.95,1.44,2.11c0.55,0,1.44,0.16,1.73,0.16
			s0.3,0.12,0.3,0.23c0,0.12-0.19,0.3-0.61,0.3c-2.11,0-4.53-0.12-4.72-0.12s-2.6,0.12-3.75,0.12c-0.42,0-0.61-0.09-0.61-0.3
			c0-0.22,0.07-0.23,0.3-0.23c0.38-0.02,0.77-0.07,1.14-0.16c0.78-0.16,0.97-1,1.11-2.11c0.2-1.6,0.2-4.63,0.2-8.31v-6.74
			c0-5.98,0-7.04-0.09-8.27c-0.09-1.23-0.45-1.95-1.3-2.15c-0.39-0.1-0.78-0.14-1.18-0.14c-0.16,0-0.3-0.09-0.3-0.23
			s0.19-0.32,0.61-0.32c1.27,0,3.68,0.12,3.87,0.12c0.19,0,2.63-0.09,3.8-0.09c0.42,0,0.62,0.09,0.62,0.32
			c0,0.23-0.16,0.23-0.32,0.23c-0.32,0.01-0.64,0.05-0.95,0.12c-1.04,0.19-1.34,0.84-1.44,2.18c-0.1,1.34-0.07,2.3-0.07,8.27
			L376.28,125.2z"/>
		<path class="st1" d="M394.77,125.2c0,3.68,0,6.71,0.19,8.31c0.12,1.11,0.35,1.95,1.44,2.11c0.53,0,1.44,0.16,1.72,0.16
			s0.32,0.12,0.32,0.23c0,0.12-0.2,0.3-0.62,0.3c-2.11,0-4.52-0.12-4.71-0.12c-0.19,0-2.61,0.12-3.75,0.12
			c-0.43,0-0.62-0.09-0.62-0.3c0-0.22,0.07-0.23,0.3-0.23c0.39-0.02,0.78-0.07,1.15-0.16c0.77-0.16,0.95-1,1.11-2.11
			c0.19-1.6,0.19-4.63,0.19-8.31V109h-5.66c-2.38,0-3.31,0.3-3.91,1.23c-0.25,0.37-0.47,0.77-0.65,1.18
			c-0.12,0.3-0.23,0.39-0.39,0.39c-0.16,0-0.19-0.12-0.19-0.35c0-0.23,0.77-3.68,0.84-3.98c0.07-0.3,0.23-0.74,0.39-0.74
			c0.54,0.23,1.11,0.38,1.69,0.46c1.11,0.12,2.56,0.19,3.02,0.19h14.36c1.27,0,2.55-0.12,3.8-0.38c0.19,0,0.19,0.23,0.19,0.46
			c0,1.14-0.12,3.78-0.12,4.22c0,0.43-0.12,0.49-0.26,0.49c-0.14,0-0.27-0.12-0.3-0.65v-0.42c-0.16-1.15-1.04-2.04-4.71-2.11h-4.84
			L394.77,125.2z"/>
		<path class="st1" d="M418.63,126.38c0.06-1.39-0.24-2.77-0.88-4.01c-0.26-0.62-5.4-9.05-6.74-11.04c-0.68-1.11-1.56-2.09-2.6-2.89
			c-0.49-0.33-1.06-0.54-1.65-0.61c-0.2,0-0.39-0.09-0.39-0.27c0-0.19,0.16-0.27,0.51-0.27c0.72,0,3.59,0.12,3.78,0.12
			c0.19,0,1.73-0.12,3.22-0.12c0.43,0,0.51,0.12,0.51,0.27c0,0.16-0.23,0.19-0.58,0.35c-0.29,0.11-0.48,0.38-0.49,0.69
			c0.05,0.51,0.22,1.01,0.49,1.44c0.62,1.11,6.37,11,7.04,12.11c0.74-1.62,5.6-10,6.37-11.26c0.39-0.58,0.62-1.26,0.65-1.96
			c0-0.53-0.16-0.95-0.61-1.07s-0.58-0.19-0.58-0.39s0.23-0.23,0.61-0.23c1,0,2.22,0.12,2.53,0.12s2.99,0.01,3.72,0.01
			c0.26,0,0.49,0.09,0.49,0.23c0,0.14-0.19,0.32-0.49,0.32c-0.62,0.02-1.23,0.2-1.76,0.53c-0.8,0.51-1.49,1.17-2.04,1.95
			c-2.68,3.91-5.12,7.98-7.32,12.18c-0.46,1.22-0.66,2.52-0.58,3.83v3.31c0,0.61,0,2.22,0.12,3.83c0.09,1.11,0.43,1.95,1.57,2.11
			c0.53,0,1.44,0.16,1.73,0.16s0.3,0.12,0.3,0.23c0,0.12-0.19,0.3-0.62,0.3c-2.11,0-4.52-0.12-4.71-0.12
			c-0.19,0-2.61,0.12-3.75,0.12c-0.42,0-0.62-0.09-0.62-0.3c0-0.22,0.09-0.23,0.32-0.23c0.38-0.02,0.77-0.07,1.14-0.16
			c0.77-0.16,1.11-1,1.18-2.11c0.12-1.6,0.12-3.22,0.12-3.83L418.63,126.38z"/>
		<path class="st1" d="M143.13,132.7c-3.12-2.92-4.81-7.06-4.63-11.33c0.05-3.91,1.6-7.66,4.33-10.47c2.3-2.3,5.77-4.1,11.68-4.1
			c1.86,0,3.72,0.15,5.56,0.46c1.29,0.27,2.59,0.47,3.9,0.58c0.43,0,0.51,0.19,0.51,0.42c0,0.23-0.12,0.77-0.19,2.15
			s-0.09,3.36-0.12,3.94c-0.03,0.58-0.12,0.81-0.35,0.81c-0.23,0-0.3-0.27-0.3-0.81c0.02-1.47-0.56-2.89-1.62-3.91
			c-2.26-1.52-4.94-2.29-7.67-2.18c-5.1,0-7.46,1.44-8.81,2.8c-2.8,2.69-3.45,6.09-3.45,10c-0.1,7.65,6.02,13.92,13.67,14.02
			c0.05,0,0.11,0,0.16,0c2.89,0,5.14-0.35,6.67-1.92c0.74-0.94,1.24-2.04,1.44-3.22c0-0.42,0.16-0.58,0.39-0.58
			c0.23,0,0.26,0.27,0.26,0.58c-0.18,1.65-0.46,3.29-0.84,4.91c-0.23,0.72-0.3,0.81-1,1.11c-2.24,0.65-4.57,0.95-6.9,0.88
			C150.03,136.85,146.16,135.43,143.13,132.7z"/>
		<path class="st1" d="M171.41,118.46c0-5.98,0-7.04,0-8.27c0-1.23-0.39-1.92-1.66-2.18c-0.43-0.08-0.86-0.12-1.3-0.12
			c-0.14,0-0.3-0.09-0.3-0.23s0.19-0.32,0.61-0.32c1.73,0,4.14,0.12,4.33,0.12c0.19,0,7.9,0,8.78,0c0.55-0.02,1.1-0.09,1.65-0.19
			c0.19,0,0.35-0.2,0.53-0.2c0.19,0,0.16,0.16,0.16,0.35c0,0.19-0.19,0.74-0.3,1.8c0,0.38-0.12,2.06-0.2,2.53
			c0,0.19-0.12,0.42-0.26,0.42c-0.14,0-0.3-0.19-0.3-0.49c0.01-0.49-0.07-0.98-0.23-1.44c-0.27-0.61-0.65-1.07-2.73-1.3
			c-0.65-0.07-4.82-0.12-5.24-0.12c-0.16,0-0.23,0.12-0.23,0.39v10.57c0,0.27,0,0.39,0.23,0.39c0.49,0,5.21,0,6.09-0.09
			c0.88-0.09,1.44-0.14,1.79-0.53s0.43-0.49,0.58-0.49c0.14,0,0.19,0,0.19,0.3c0,0.3-0.19,0.88-0.3,2.14
			c-0.07,0.77-0.14,2.19-0.14,2.45c0,0.26,0,0.74-0.27,0.74c-0.27,0-0.27-0.16-0.27-0.35c0.02-0.43-0.03-0.86-0.14-1.27
			c-0.16-0.53-0.51-1.18-1.99-1.34c-1.04-0.12-4.84-0.19-5.49-0.19c-0.14-0.01-0.25,0.09-0.26,0.23c0,0.02,0,0.03,0,0.05v3.36
			c0,1.3,0,5.77,0,6.55c0.12,2.64,0.69,3.15,4.45,3.15c1.24,0.07,2.48-0.08,3.67-0.43c1-0.42,1.44-1.18,1.73-2.76
			c0-0.42,0.14-0.56,0.35-0.56c0.2,0,0.23,0.3,0.23,0.56s-0.32,2.89-0.51,3.72c-0.19,0.84-0.58,1-2.06,1
			c-5.77,0-8.36-0.23-9.47-0.23c-0.19,0-2.6,0.12-3.75,0.12c-0.42,0-0.61-0.09-0.61-0.3c0-0.22,0-0.23,0.3-0.23
			c0.39-0.02,0.78-0.07,1.15-0.16c0.77-0.16,0.95-1,1.11-2.11c0.19-1.6,0.19-4.63,0.19-8.31L171.41,118.46z"/>
		<path class="st1" d="M127.84,135.53c-0.49,0.03-0.99-0.06-1.44-0.25c-1.23-0.55-2.33-1.36-3.22-2.38
			c-2.22-2.38-4.84-5.77-7.97-9.82c3.45-3.18,4.63-6.01,4.63-8.85c-0.04-2.05-1.01-3.97-2.64-5.21c-2.11-1.27-4.56-1.85-7.02-1.66
			c-1.18,0-4.1,0.12-4.52,0.12c-0.19,0-2.6-0.12-4.33-0.12c-0.42,0-0.61,0.09-0.61,0.32c0,0.23,0.14,0.23,0.3,0.23
			c0.44-0.01,0.87,0.03,1.3,0.12c1.27,0.26,1.57,0.88,1.65,2.18s0.09,2.3,0.09,8.27v6.74c0,3.68,0,6.71-0.2,8.31
			c-0.14,1.11-0.35,1.95-1.11,2.11c-0.37,0.09-0.76,0.14-1.14,0.16c-0.23,0-0.3,0.12-0.3,0.23s0.19,0.3,0.61,0.3
			c1.15,0,3.57-0.12,3.59-0.12c0.03,0,2.61,0.12,4.72,0.12c0.42,0,0.61-0.12,0.61-0.3s0-0.23-0.3-0.23s-1.18-0.09-1.72-0.16
			c-1.15-0.16-1.44-1-1.44-2.11c-0.19-1.6-0.19-4.63-0.19-8.31v-0.92c0-0.19,0-0.3,0.26-0.3l4.72,0.09
			c0.19-0.01,0.37,0.07,0.49,0.22c0.77,1,2.57,3.57,4.19,5.67c2.18,2.89,3.52,4.75,5.17,5.63c1.27,0.62,2.69,0.87,4.1,0.74h1.13
			c1.14,0,3.57-0.12,3.75-0.12c0.19,0,2.6,0.12,4.71,0.12c0.43,0,0.62-0.12,0.62-0.3c0-0.19-0.09-0.23-0.3-0.23
			c-0.22,0-1.2-0.09-1.73-0.16c-1.14-0.16-1.44-1-1.44-2.11c-0.2-1.6-0.2-4.63-0.2-8.31v-6.77c0-5.98,0-7.04,0.09-8.27
			c0.09-1.23,0.38-1.99,1.44-2.18c0.33-0.08,0.67-0.12,1.01-0.12c0.14,0,0.25-0.11,0.25-0.24c0,0,0-0.01,0-0.01
			c0-0.22-0.2-0.29-0.61-0.29c-1.15,0-3.57,0.12-3.75,0.12c-0.19,0-2.8-0.09-4.06-0.09c-0.42,0-0.62,0.09-0.62,0.32
			c0,0.23,0.16,0.23,0.32,0.23c0.4,0,0.8,0.05,1.18,0.14c0.84,0.2,1.23,0.85,1.3,2.15c0.07,1.3,0,2.3,0,8.27v6.74
			c0,3.68,0,6.71-0.19,8.31c-0.05,0.5-0.16,0.98-0.35,1.44c-0.17,0.33-0.51,0.55-0.88,0.55H127.84z M114.23,122.14
			c-0.87,0.53-1.87,0.78-2.89,0.72c-1.37,0.06-2.75-0.14-4.04-0.61c-0.17-0.09-0.27-0.27-0.26-0.46v-12.53
			c-0.01-0.2,0.11-0.39,0.3-0.46c0.85-0.17,1.71-0.25,2.57-0.23c4.1,0,6.63,2.89,6.63,7.67
			C116.57,119.15,115.57,121.21,114.23,122.14z"/>
	</g>
	<g>
		<g>
			<path class="st2" d="M58.05,42.93c9.11,0,16.5-7.39,16.5-16.5c0-9.11-7.39-16.5-16.5-16.5c-9.11,0-16.5,7.39-16.5,16.5v2.27"/>
			<g>
				<polygon class="st3" points="33.93,26.78 41.55,36.44 49.16,26.78 				"/>
			</g>
		</g>
		<path class="st4" d="M58.05,42.93c9.11,0,16.5-7.39,16.5-16.5s-7.39-16.5-16.5-16.5s-16.5,7.39-16.5,16.5v10.02"/>
	</g>
	<g>
		<g>
			<path class="st0" d="M76.79,118.91l-0.14-0.46c-1.2-3.77-1.91-8-2.73-12.88c-1.12-6.67-2.39-14.23-5.32-22.84
				c-2.18-6.38-6.34-11.87-11.57-15.33c-0.38-0.26-0.48-0.78-0.21-1.16c0.01-0.01,0.01-0.02,0.02-0.02
				c5.6-7.29,4.24-17.75-3.05-23.35c-6.49-4.99-15.65-4.52-21.59,1.11c-0.31,0.3-0.81,0.3-1.12,0c-6.67-6.33-17.21-6.05-23.54,0.61
				S1.46,61.79,8.13,68.12c0.38,0.36,0.77,0.7,1.18,1.02c0.3,0.24,0.45,0.62,0.39,1c-2.34,14.27,4,28.57,16.15,36.42l0,0
				c1.83,1.88,3.82,3.6,5.95,5.12c0.32,0.23,0.44,0.65,0.29,1.02c-0.88,2.17-1.95,4.26-3.19,6.25c-0.69,1.09-1.89,1.74-3.17,1.73
				l-1.61,0c-1.75,0-3.32,1.07-3.95,2.7l-0.71,1.83c-0.2,0.5-0.14,1.07,0.17,1.52c0.31,0.45,0.82,0.72,1.36,0.72l20.4-0.01
				c0.31-0.03,0.62-0.1,0.91-0.21c0.23-0.08,0.45-0.17,0.67-0.27c0.2-0.1,0.43-0.15,0.65-0.15c0.21,0,0.42,0.05,0.62,0.13
				c0.16,0.07,0.32,0.14,0.48,0.19c0.57,0.2,1.18,0.31,1.78,0.3l0.78,0c0.59,0.01,1.15-0.22,1.57-0.62
				c0.57-0.55,0.79-1.36,0.58-2.12l-0.37-1.43c-0.25-0.92-0.86-1.71-1.7-2.16c-0.17-0.09-0.23-0.29-0.15-0.46
				c0.01-0.01,0.01-0.02,0.02-0.03c0.44-0.67,0.87-1.37,1.28-2.09l0,0c0.17-0.3,0.55-0.42,0.87-0.27c3.44,1.63,7.01,2.96,10.67,4
				c0.33,0.09,0.68-0.03,0.87-0.31l0,0c0.76-1.07,1.5-2.22,2.19-3.41c0.35-0.59,0.67-1.2,0.98-1.81c0.17-0.34,0.58-0.49,0.93-0.34
				c3.42,1.5,7.02,2.55,10.71,3.13l0.48,0.08c0.28,0.04,0.54-0.16,0.57-0.44C76.81,119.05,76.81,118.98,76.79,118.91z"/>
		</g>
	</g>
	<g>
		<g>
			<g>
				<path class="st0" d="M74.79,118.91l-0.14-0.46c-1.2-3.77-1.91-8-2.73-12.88c-1.12-6.67-2.39-14.23-5.32-22.84
					c-2.18-6.38-6.34-11.87-11.57-15.33c-0.38-0.26-0.48-0.78-0.21-1.16c0.01-0.01,0.01-0.02,0.02-0.02
					c5.6-7.29,4.24-17.75-3.05-23.35c-6.49-4.99-15.65-4.52-21.59,1.11c-0.31,0.3-0.81,0.3-1.12,0c-6.67-6.33-17.21-6.05-23.54,0.61
					s-6.05,17.21,0.61,23.54c0.38,0.36,0.77,0.7,1.18,1.02c0.3,0.24,0.45,0.62,0.39,1c-2.34,14.27,4,28.57,16.15,36.42l0,0
					c1.83,1.88,3.82,3.6,5.95,5.12c0.32,0.23,0.44,0.65,0.29,1.02c-0.88,2.17-1.95,4.26-3.19,6.25c-0.69,1.09-1.89,1.74-3.17,1.73
					l-1.61,0c-1.75,0-3.32,1.07-3.95,2.7l-0.71,1.83c-0.2,0.5-0.14,1.07,0.17,1.52c0.31,0.45,0.82,0.72,1.36,0.72l20.4-0.01
					c0.31-0.03,0.62-0.1,0.91-0.21c0.23-0.08,0.45-0.17,0.67-0.27c0.2-0.1,0.43-0.15,0.65-0.15c0.21,0,0.42,0.05,0.62,0.13
					c0.16,0.07,0.32,0.14,0.48,0.19c0.57,0.2,1.18,0.31,1.78,0.3l0.78,0c0.59,0.01,1.15-0.22,1.57-0.62
					c0.57-0.55,0.79-1.36,0.58-2.12l-0.37-1.43c-0.25-0.92-0.86-1.71-1.7-2.16c-0.17-0.09-0.23-0.29-0.15-0.46
					c0.01-0.01,0.01-0.02,0.02-0.03c0.44-0.67,0.87-1.37,1.28-2.09l0,0c0.17-0.3,0.55-0.42,0.87-0.27c3.44,1.63,7.01,2.96,10.67,4
					c0.33,0.09,0.68-0.03,0.87-0.31l0,0c0.76-1.07,1.5-2.22,2.19-3.41c0.35-0.59,0.67-1.2,0.98-1.81c0.17-0.34,0.58-0.49,0.93-0.34
					c3.42,1.5,7.02,2.55,10.71,3.13l0.48,0.08c0.28,0.04,0.54-0.16,0.57-0.44C74.81,119.05,74.81,118.98,74.79,118.91z M55.5,61.91
					c-1.28,2.96-3.47,5.42-6.25,7.05c-0.35,0.19-0.78,0.07-0.97-0.28c-0.07-0.13-0.1-0.27-0.09-0.41c0.16-1.84-0.13-3.69-0.84-5.39
					c-0.36-0.9-0.27-1.92,0.24-2.75c0.63-1.05,1.01-2.22,1.12-3.44c0.05-0.49,0.49-0.85,0.98-0.8c0.03,0,0.06,0.01,0.1,0.02
					c2,0.38,3.82,1.38,5.21,2.86C55.77,59.64,55.96,60.86,55.5,61.91z M52.4,46.51L52.4,46.51c0.66,0.04,1.27,0.38,1.65,0.92
					c1.74,2.5,2.67,5.48,2.67,8.53c0,0.21,0,0.42,0,0.64c-0.02,0.37-0.33,0.65-0.7,0.64c-0.16-0.01-0.31-0.07-0.42-0.18
					c-1.67-1.49-3.73-2.47-5.94-2.82c-0.67-0.12-1.23-0.57-1.47-1.2c-0.4-1.02-1-1.94-1.76-2.72c-0.47-0.48-0.46-1.24,0.02-1.71
					c0.03-0.03,0.07-0.06,0.1-0.09C48.18,47.14,50.27,46.43,52.4,46.51z M29.61,57.93c2.67,0,4.84,2.16,4.85,4.83
					c0,0.74-0.17,1.46-0.5,2.12l-3.81,8.03c-0.14,0.29-0.49,0.42-0.78,0.28c-0.12-0.06-0.22-0.16-0.28-0.28l-3.82-8.02l0,0
					c-0.33-0.66-0.5-1.39-0.5-2.13C24.78,60.1,26.94,57.94,29.61,57.93z M18.57,62.45c-3.57,0-6.47-2.89-6.47-6.46
					c0-3.57,2.89-6.47,6.46-6.47s6.47,2.89,6.47,6.46v0C25.03,59.55,22.14,62.45,18.57,62.45z M34.19,55.98
					c0-3.57,2.89-6.47,6.46-6.47c3.57,0,6.47,2.89,6.47,6.46c0,3.57-2.89,6.47-6.46,6.47c0,0-0.01,0-0.01,0
					C37.09,62.43,34.2,59.54,34.19,55.98z M42.31,41.45c1.16-0.24,2.36-0.22,3.51,0.06c1.71,0.49,3.31,1.28,4.74,2.34
					c0.29,0.22,0.35,0.63,0.13,0.93c-0.1,0.13-0.25,0.22-0.41,0.26c-1.86,0.35-3.59,1.19-5.02,2.42c-0.77,0.64-1.79,0.88-2.76,0.65
					c-0.62-0.15-1.25-0.22-1.88-0.22c-1.78,0-3.51,0.59-4.92,1.68c-0.23,0.17-0.55,0.12-0.71-0.11c-0.1-0.13-0.12-0.3-0.08-0.45
					C36.22,45.01,38.89,42.09,42.31,41.45z M22.72,41.88c2.43,0.89,4.58,2.4,6.26,4.37c0.29,0.34,0.81,0.38,1.15,0.08
					c0.03-0.03,0.06-0.05,0.09-0.09c1.67-1.97,3.82-3.48,6.25-4.38c0.2-0.12,0.46-0.06,0.58,0.13c0.12,0.2,0.06,0.46-0.13,0.58
					c-1,0.99-1.83,2.13-2.47,3.39c-1.53,3.1-2.19,6.56-1.92,10.01c0.02,0.36-0.25,0.68-0.62,0.7c-0.09,0.01-0.17-0.01-0.25-0.03
					c-1.33-0.44-2.76-0.44-4.09,0c-0.35,0.12-0.72-0.07-0.84-0.42c-0.03-0.08-0.04-0.17-0.03-0.25c0.27-3.45-0.4-6.9-1.94-10.01
					c-0.64-1.25-1.47-2.4-2.47-3.38c-0.2-0.13-0.25-0.39-0.13-0.59c0.13-0.2,0.39-0.25,0.59-0.13L22.72,41.88z M8.63,43.88
					c1.43-1.06,3.03-1.85,4.74-2.34c1.15-0.28,2.35-0.31,3.52-0.07c3.44,0.63,6.1,3.54,7.4,7.53c0.09,0.27-0.06,0.56-0.32,0.65
					c-0.16,0.05-0.33,0.02-0.47-0.08c-1.41-1.09-3.14-1.67-4.92-1.67c-0.63,0-1.27,0.08-1.88,0.22c-0.97,0.23-1.99-0.01-2.76-0.64
					c-1.43-1.23-3.17-2.06-5.02-2.42C8.53,45,8.3,44.65,8.37,44.29C8.4,44.13,8.49,43.98,8.63,43.88z M2.51,56.64
					c0-0.21,0-0.42,0-0.64c-0.01-3.05,0.92-6.03,2.66-8.54c0.38-0.54,0.98-0.88,1.64-0.92l0,0c2.13-0.09,4.22,0.62,5.86,2
					c0.53,0.41,0.62,1.17,0.22,1.7c-0.03,0.04-0.06,0.07-0.09,0.1c-0.76,0.78-1.36,1.71-1.76,2.73c-0.24,0.63-0.79,1.08-1.45,1.21
					c-2.21,0.36-4.27,1.34-5.94,2.83c-0.26,0.26-0.69,0.26-0.95,0C2.59,56.98,2.52,56.81,2.51,56.64z M3.73,61.95
					c-0.46-1.05-0.26-2.28,0.5-3.14c1.38-1.47,3.19-2.48,5.18-2.87c0.22-0.05,0.44-0.01,0.64,0.1l0,0c0.26,0.14,0.43,0.4,0.47,0.69
					c0.11,1.21,0.49,2.38,1.12,3.42c0.51,0.83,0.6,1.84,0.25,2.75c-0.71,1.7-1,3.55-0.83,5.39c0.04,0.4-0.24,0.75-0.64,0.79
					c-0.15,0.02-0.3-0.02-0.44-0.09C7.2,67.37,5.01,64.9,3.73,61.95z M16.35,97.6c-0.24-0.3-0.47-0.61-0.7-0.92
					c-4.45-5.97-6.84-13.22-6.82-20.67c0-1.51,0.1-3.02,0.3-4.52c0.05-0.4,0.41-0.69,0.82-0.64c0.08,0.01,0.16,0.03,0.24,0.07
					l0.03,0c0.95,0.46,1.53,1.45,1.47,2.51c-0.05,0.9-0.09,1.82-0.09,2.56c-0.01,7.4,1.84,14.68,5.38,21.17
					c0.12,0.17,0.08,0.41-0.1,0.52C16.7,97.82,16.47,97.77,16.35,97.6L16.35,97.6z M29.27,123.37l-0.42,1.07l-0.3,0.76l0,0
					c-0.14,0.36-0.49,0.6-0.87,0.6l-3.83,0c-0.11,0-0.2-0.09-0.2-0.2c0-0.02,0-0.05,0.01-0.07l0.46-1.19
					c0.08-0.21-0.03-0.44-0.23-0.53c-0.62-0.24-1.32,0.07-1.56,0.69l-0.28,0.7l0,0c-0.13,0.35-0.46,0.59-0.84,0.59l-1.78,0
					c-0.18,0-0.34-0.15-0.34-0.33c0-0.04,0.01-0.09,0.02-0.13l0.53-1.36c0.39-1.01,1.36-1.68,2.45-1.68l1.61,0
					c1.84,0.01,3.56-0.93,4.54-2.49c1.26-2.03,2.35-4.16,3.26-6.38c0.1-0.21,0.35-0.3,0.56-0.2c0.01,0,0.02,0.01,0.02,0.01
					c0.78,0.49,1.59,0.97,2.41,1.41c0.49,0.28,0.68,0.89,0.42,1.39c-0.74,1.42-1.55,2.8-2.45,4.13c-0.26,0.39-0.63,0.69-1.06,0.88
					C30.44,121.52,29.66,122.35,29.27,123.37z M39.85,114.12c0.32,0.19,0.45,0.59,0.29,0.93c-0.64,1.33-1.35,2.63-2.13,3.89
					c-0.69,1.09-1.89,1.74-3.18,1.73c-0.21,0-0.38-0.18-0.38-0.39c0-0.07,0.02-0.14,0.06-0.2c1.29-2.05,2.41-4.2,3.34-6.43
					c0.12-0.27,0.43-0.4,0.71-0.29c0.03,0.01,0.05,0.03,0.08,0.04C39.05,113.65,39.45,113.88,39.85,114.12z M38.81,111.23
					c0.16-0.45,0.31-0.9,0.45-1.36c0.05-0.18,0.24-0.28,0.42-0.22c0.04,0.01,0.09,0.04,0.12,0.07c0.56,0.47,1.13,0.93,1.72,1.37
					c0.13,0.1,0.19,0.28,0.13,0.44c-0.14,0.38-0.28,0.75-0.42,1.12c-0.07,0.15-0.25,0.22-0.4,0.15c0,0-0.01,0-0.01-0.01
					c-0.62-0.36-1.22-0.72-1.81-1.1C38.84,111.59,38.77,111.41,38.81,111.23L38.81,111.23z M46.34,115.41
					c-0.38,0.77-0.79,1.54-1.22,2.29c-0.66,1.14-1.38,2.25-2.12,3.3l-0.67,0.97c-0.06,0.09-0.04,0.21,0.06,0.27
					c0.03,0.02,0.07,0.03,0.1,0.03l1.2,0c0.85,0,1.59,0.57,1.81,1.39l0.37,1.42c0.05,0.17,0.01,0.35-0.1,0.49
					c-0.11,0.14-0.27,0.22-0.45,0.22l-0.81,0c-0.43,0-0.85-0.07-1.26-0.21c-0.34-0.12-0.66-0.28-0.95-0.48
					c-0.12-0.08-0.25-0.14-0.39-0.17c-0.31-0.08-0.64-0.03-0.91,0.13l-0.31,0.18c-0.45,0.26-0.94,0.42-1.45,0.49l-0.19,0.03
					c-0.19,0.02-0.38,0.03-0.56,0.03l-3.25,0c-0.23,0-0.42-0.19-0.41-0.43c0-0.05,0.01-0.09,0.03-0.14l0.37-0.95
					c0.07-0.19-0.02-0.4-0.21-0.47c-0.64-0.25-1.37,0.07-1.62,0.71l-0.19,0.5c-0.17,0.47-0.62,0.78-1.12,0.78l-1.67,0
					c-0.09,0-0.17-0.04-0.22-0.12c-0.05-0.07-0.07-0.17-0.03-0.25l0.68-1.75c0.33-0.84,1.14-1.4,2.04-1.4l1.93,0
					c1.84,0.01,3.56-0.93,4.54-2.49c1.41-2.28,2.61-4.68,3.58-7.17c0.06-0.17,0.25-0.26,0.43-0.19c0.03,0.01,0.05,0.02,0.07,0.04
					c0.8,0.54,1.62,1.06,2.46,1.55C46.4,114.3,46.59,114.91,46.34,115.41L46.34,115.41z M47.1,112.83c-1.34-0.77-2.64-1.6-3.89-2.51
					c-1.27-0.93-2.49-1.93-3.66-2.99c-3.01-2.74-5.62-5.9-7.74-9.38c-0.12-0.18-0.36-0.24-0.55-0.14c-0.57,0.33-0.77,1.06-0.44,1.63
					c0.01,0.01,0.02,0.03,0.02,0.04c1.62,2.56,3.5,4.94,5.61,7.11c1.02,1.05,1.35,2.59,0.86,3.97c-0.32,0.93-0.68,1.83-1.07,2.73
					c-0.08,0.19-0.3,0.27-0.48,0.19c-0.01,0-0.02-0.01-0.03-0.01c-13.91-7.31-22.6-21.75-22.55-37.46c0-0.71,0.04-1.62,0.09-2.51
					c0.04-0.65,0.6-1.15,1.25-1.11c0.04,0,0.09,0.01,0.13,0.01c0.95,0.16,1.91,0.25,2.88,0.25l5.97,0c0.25,0,0.45-0.2,0.46-0.44
					c0.01-0.64-0.51-1.16-1.14-1.17c0,0-0.01,0-0.01,0l-5.27,0c-0.76,0-1.51-0.06-2.26-0.17c-1.37-0.2-2.44-1.3-2.6-2.68
					c-0.15-1.5,0.06-3.01,0.6-4.41c0.21-0.58,0.85-0.88,1.43-0.66c0.05,0.02,0.09,0.04,0.14,0.06c2.33,1.21,5.11,1.21,7.44,0
					c0.18-0.1,0.41-0.1,0.59,0l0,0c0.17,0.1,0.29,0.27,0.32,0.47c0.09,0.68,0.29,1.35,0.6,1.97l4.07,8.48
					c0.47,0.98,1.64,1.39,2.61,0.92c0.41-0.19,0.73-0.52,0.93-0.93l4.02-8.48c0.3-0.62,0.5-1.28,0.6-1.97
					c0.02-0.16,0.1-0.31,0.22-0.42c0.19-0.16,0.46-0.19,0.69-0.07c2.34,1.21,5.12,1.21,7.46,0c0.55-0.29,1.23-0.07,1.51,0.48
					c0.02,0.04,0.04,0.08,0.06,0.13c0.53,1.37,0.75,2.85,0.62,4.32c-0.14,1.41-1.21,2.55-2.61,2.76c-0.75,0.11-1.5,0.17-2.26,0.17
					l-5.27,0c-0.64,0-1.15,0.51-1.15,1.15c0,0.01,0,0.01,0,0.02c0,0.25,0.21,0.45,0.46,0.44c0,0,0,0,0,0l0.26,0
					c0.37,0,0.67,0.3,0.67,0.68c0,0.01,0,0.03,0,0.04c-0.06,0.87-0.09,1.76-0.09,2.65c0.01,10.56,3.8,20.76,10.7,28.75
					c0.14,0.16,0.28,0.32,0.42,0.48c1.11,1.24,1.48,2.97,0.97,4.56c-0.32,0.98-0.68,1.94-1.07,2.88c-0.07,0.17-0.28,0.26-0.45,0.18
					C47.12,112.85,47.11,112.84,47.1,112.83L47.1,112.83z M60.01,117.21c-0.09,0.16-0.18,0.32-0.28,0.48
					c-0.5,0.87-1.03,1.71-1.58,2.51c-0.12,0.18-0.35,0.26-0.56,0.2c-3.33-1-6.58-2.25-9.72-3.74c-0.15-0.08-0.21-0.26-0.14-0.42
					c1.03-2.07,1.9-4.21,2.6-6.41c0.17-0.52,0.73-0.81,1.25-0.65c0.13,0.04,0.24,0.1,0.34,0.19c2.26,1.94,4.7,3.65,7.3,5.1
					C60.2,115.02,60.54,116.25,60.01,117.21L60.01,117.21z M72.3,117.59c-19.82-3.98-34.09-21.38-34.12-41.6
					c0-0.74,0.02-1.49,0.07-2.22c0.04-0.65,0.57-1.15,1.22-1.15l2.09,0c3.82,0.01,7.52-1.28,10.51-3.64
					c0.66-0.52,1.58-0.55,2.27-0.08c4.83,3.27,8.68,8.4,10.71,14.35c1.79,5.34,3.19,10.81,4.18,16.36c0.03,0.15-0.07,0.29-0.21,0.31
					c-0.06,0.01-0.12,0-0.17-0.02c-3.21-1.59-6.07-3.8-8.42-6.51c-2.66-3.09-4.58-6.75-5.61-10.7c-0.15-0.57-0.72-0.92-1.29-0.8l0,0
					c-0.29,0.05-0.48,0.33-0.42,0.62c0,0.01,0,0.02,0.01,0.02c1.05,4.4,3.13,8.48,6.09,11.91c2.47,2.85,5.49,5.19,8.87,6.87
					c1.01,0.5,1.73,1.46,1.91,2.58c0.11,0.66,0.22,1.31,0.33,1.95c0.16,0.98,0.32,1.93,0.48,2.86c0.03,0.15-0.07,0.28-0.22,0.31
					c-0.04,0.01-0.08,0-0.12-0.01c-10.47-3.23-18.79-11.22-22.43-21.55c-0.2-0.55-0.8-0.85-1.36-0.68
					c-0.28,0.09-0.44,0.39-0.34,0.68c0,0,0,0,0,0c3.61,10.78,12.08,19.24,22.87,22.84c1.23,0.41,2.15,1.44,2.41,2.7
					c0.3,1.48,0.63,2.93,1,4.28c0.04,0.14-0.04,0.29-0.18,0.33C72.38,117.6,72.34,117.6,72.3,117.59L72.3,117.59z"/>
				<path class="st0" d="M19.04,59.24c-2.33-0.27-4-2.39-3.73-4.72c0.09-0.76,0.38-1.49,0.85-2.1c0.07-0.11,0.04-0.24-0.07-0.31
					c-0.07-0.05-0.17-0.05-0.24,0c-2.14,1.5-2.65,4.45-1.15,6.59c1.5,2.14,4.45,2.65,6.59,1.15c0.45-0.32,0.84-0.71,1.16-1.16
					c0.07-0.1,0.04-0.24-0.06-0.31c-0.08-0.05-0.18-0.05-0.25,0C21.25,59.06,20.14,59.37,19.04,59.24z"/>
				<path class="st0" d="M41.13,59.23c-2.33-0.27-4-2.39-3.73-4.72c0.09-0.76,0.38-1.49,0.85-2.1c0.07-0.11,0.04-0.24-0.07-0.31
					c-0.07-0.05-0.17-0.05-0.24,0c-2.14,1.5-2.65,4.45-1.15,6.59c1.5,2.14,4.45,2.65,6.59,1.15c0.45-0.32,0.84-0.71,1.16-1.16
					c0.07-0.1,0.04-0.24-0.06-0.31c-0.08-0.05-0.18-0.05-0.25,0C43.34,59.05,42.23,59.36,41.13,59.23z"/>
			</g>
		</g>
		<g>
			<path class="st5" d="M35.23,48.86c-0.05,0.15-0.02,0.32,0.08,0.45c0.17,0.23,0.49,0.28,0.71,0.11c1.41-1.09,3.14-1.68,4.92-1.68
				c0.63,0,1.27,0.07,1.88,0.22c0.97,0.23,1.99-0.01,2.76-0.65c1.43-1.23,3.16-2.07,5.02-2.42c0.16-0.03,0.31-0.12,0.41-0.26
				c0.22-0.29,0.16-0.71-0.13-0.93c-1.43-1.05-3.03-1.85-4.74-2.34c-1.15-0.28-2.35-0.3-3.51-0.06
				C39.21,41.97,36.54,44.88,35.23,48.86z"/>
			<path class="st5" d="M48.59,68.56c0.19,0.35,0.63,0.47,0.97,0.28c2.78-1.62,4.97-4.09,6.25-7.05c0.46-1.05,0.27-2.28-0.49-3.13
				c-1.39-1.48-3.22-2.48-5.21-2.86c-0.03-0.01-0.06-0.01-0.1-0.02c-0.49-0.05-0.93,0.31-0.98,0.8c-0.11,1.22-0.49,2.39-1.12,3.44
				c-0.51,0.83-0.6,1.84-0.24,2.75c0.72,1.7,1,3.55,0.84,5.39C48.49,68.29,48.52,68.43,48.59,68.56z"/>
			<path class="st5" d="M46.86,48.39c-0.04,0.03-0.07,0.06-0.1,0.09c-0.48,0.47-0.49,1.23-0.02,1.71c0.76,0.78,1.36,1.71,1.76,2.72
				c0.25,0.63,0.81,1.09,1.47,1.2c2.21,0.36,4.27,1.33,5.94,2.82c0.12,0.11,0.27,0.17,0.42,0.18c0.37,0.02,0.68-0.27,0.7-0.64
				c0-0.23,0-0.43,0-0.64c0-3.05-0.93-6.03-2.67-8.53c-0.38-0.54-0.98-0.88-1.65-0.92C50.58,46.3,48.49,47.02,46.86,48.39z"/>
			<path class="st5" d="M36.74,70.9l5.27,0c0.76,0,1.51-0.06,2.26-0.17c1.4-0.22,2.47-1.35,2.61-2.76c0.13-1.47-0.08-2.95-0.62-4.32
				c-0.02-0.04-0.04-0.09-0.06-0.13c-0.29-0.55-0.96-0.76-1.51-0.48c-2.34,1.22-5.12,1.22-7.46,0c-0.22-0.12-0.49-0.09-0.69,0.07
				c-0.12,0.11-0.2,0.26-0.22,0.42c-0.09,0.68-0.29,1.35-0.6,1.97l-4.02,8.48c-0.19,0.41-0.52,0.73-0.93,0.93
				c-0.98,0.47-2.15,0.05-2.61-0.92l-4.07-8.48c-0.31-0.62-0.51-1.28-0.6-1.97c-0.03-0.2-0.15-0.37-0.32-0.47
				c-0.18-0.1-0.41-0.1-0.59,0c-2.33,1.21-5.11,1.21-7.44,0c-0.04-0.02-0.09-0.04-0.14-0.06c-0.58-0.21-1.22,0.09-1.43,0.66
				c-0.54,1.4-0.75,2.91-0.6,4.41c0.17,1.38,1.23,2.47,2.6,2.68c0.75,0.11,1.5,0.17,2.26,0.17l5.27,0c0,0,0.01,0,0.01,0
				c0.64,0.01,1.15,0.53,1.14,1.17c-0.01,0.25-0.21,0.45-0.46,0.44l-5.97,0c-0.97,0-1.93-0.08-2.88-0.24
				c-0.04-0.01-0.08-0.01-0.13-0.01c-0.65-0.04-1.21,0.46-1.25,1.11c-0.05,0.89-0.09,1.8-0.09,2.51
				c-0.05,15.71,8.64,30.15,22.55,37.46c0.01,0,0.02,0.01,0.03,0.01c0.19,0.08,0.4-0.01,0.48-0.19c0.39-0.9,0.74-1.81,1.07-2.73
				c0.49-1.38,0.15-2.92-0.86-3.97c-2.11-2.17-3.99-4.55-5.61-7.11c-0.01-0.01-0.02-0.03-0.02-0.04c-0.33-0.57-0.13-1.3,0.44-1.63
				c0.19-0.11,0.43-0.05,0.55,0.14c2.12,3.48,4.72,6.64,7.74,9.38c1.16,1.06,2.38,2.06,3.66,2.99c1.25,0.9,2.55,1.74,3.89,2.51l0,0
				c0.01,0.01,0.03,0.02,0.04,0.02c0.17,0.07,0.38-0.01,0.45-0.18c0.39-0.95,0.74-1.91,1.07-2.88c0.52-1.58,0.15-3.32-0.97-4.56
				c-0.14-0.16-0.28-0.31-0.42-0.48c-6.9-7.99-10.69-18.19-10.7-28.75c0-0.9,0.03-1.78,0.09-2.65c0-0.01,0-0.03,0-0.04
				c0-0.37-0.3-0.67-0.67-0.68l-0.26,0c0,0,0,0,0,0c-0.25,0-0.46-0.19-0.46-0.44c0-0.01,0-0.01,0-0.02
				C35.59,71.41,36.11,70.89,36.74,70.9z"/>
			<path class="st5" d="M42.63,124.99c0.29,0.2,0.61,0.36,0.95,0.48c0.4,0.14,0.83,0.21,1.26,0.21l0.81,0
				c0.18,0,0.34-0.08,0.45-0.22c0.11-0.14,0.15-0.32,0.1-0.49l-0.37-1.42c-0.22-0.82-0.96-1.39-1.81-1.39l-1.2,0
				c-0.04,0-0.07-0.01-0.1-0.03c-0.09-0.06-0.12-0.18-0.06-0.27l0.67-0.97c0.74-1.04,1.45-2.15,2.12-3.3
				c0.43-0.76,0.84-1.52,1.22-2.29l0,0c0.25-0.5,0.06-1.12-0.43-1.39c-0.84-0.49-1.66-1.01-2.46-1.55
				c-0.02-0.02-0.05-0.03-0.07-0.04c-0.17-0.06-0.36,0.02-0.43,0.19c-0.97,2.49-2.17,4.9-3.58,7.17c-0.98,1.56-2.7,2.5-4.54,2.49
				l-1.93,0c-0.9,0-1.71,0.55-2.04,1.4l-0.68,1.75c-0.03,0.08-0.02,0.18,0.03,0.25c0.05,0.07,0.13,0.12,0.22,0.12l1.67,0
				c0.5,0,0.95-0.31,1.12-0.78l0.19-0.5c0.25-0.64,0.98-0.96,1.62-0.71c0.19,0.07,0.28,0.28,0.21,0.47l-0.37,0.95
				c-0.02,0.04-0.03,0.09-0.03,0.14c0,0.23,0.18,0.42,0.41,0.43l3.25,0c0.19,0,0.38-0.01,0.56-0.03l0.19-0.03
				c0.51-0.06,1-0.23,1.45-0.49l0.31-0.18c0.27-0.16,0.6-0.21,0.91-0.13C42.38,124.85,42.51,124.9,42.63,124.99z"/>
			<path class="st5" d="M3.03,56.97c0.26,0.26,0.69,0.26,0.95,0c1.67-1.49,3.73-2.47,5.94-2.83c0.66-0.12,1.21-0.58,1.45-1.21
				c0.39-1.02,0.99-1.95,1.76-2.73c0.03-0.03,0.06-0.07,0.09-0.1c0.41-0.53,0.31-1.29-0.22-1.7c-1.64-1.37-3.73-2.08-5.86-2
				c-0.66,0.04-1.27,0.38-1.64,0.92c-1.74,2.51-2.66,5.49-2.66,8.54c0,0.23,0,0.43,0,0.64C2.83,56.69,2.9,56.85,3.03,56.97z"/>
			<path class="st5" d="M59.55,114.36c-2.6-1.45-5.04-3.16-7.3-5.1c-0.1-0.09-0.22-0.15-0.34-0.19c-0.52-0.17-1.08,0.12-1.25,0.65
				c-0.7,2.2-1.57,4.34-2.6,6.41c-0.07,0.16-0.01,0.34,0.14,0.42c3.14,1.49,6.39,2.74,9.72,3.74c0.21,0.06,0.44-0.02,0.56-0.2
				c0.54-0.8,1.07-1.65,1.58-2.51c0.1-0.16,0.18-0.32,0.28-0.48l0,0C60.86,116.12,60.51,114.9,59.55,114.36z"/>
			<path class="st5" d="M69.5,110.15c-10.79-3.59-19.26-12.05-22.87-22.84c0,0,0,0,0,0c-0.09-0.28,0.06-0.58,0.34-0.68
				c0.56-0.18,1.16,0.12,1.36,0.68c3.64,10.33,11.96,18.32,22.43,21.55c0.04,0.01,0.08,0.02,0.12,0.01
				c0.15-0.03,0.24-0.16,0.22-0.31c-0.16-0.93-0.32-1.88-0.48-2.86c-0.11-0.64-0.21-1.29-0.33-1.95c-0.19-1.12-0.9-2.08-1.91-2.58
				c-3.38-1.68-6.4-4.01-8.87-6.87c-2.96-3.42-5.04-7.51-6.09-11.91c0-0.01,0-0.02-0.01-0.02c-0.05-0.29,0.13-0.57,0.42-0.62
				c0.57-0.12,1.14,0.23,1.29,0.8c1.03,3.95,2.94,7.61,5.61,10.7c2.35,2.71,5.21,4.92,8.42,6.51c0.05,0.03,0.11,0.04,0.17,0.02
				c0.15-0.03,0.24-0.17,0.21-0.31c-0.99-5.55-2.38-11.01-4.18-16.36c-2.03-5.95-5.88-11.08-10.71-14.35
				c-0.69-0.47-1.61-0.44-2.27,0.08c-2.99,2.37-6.7,3.65-10.51,3.64l-2.09,0c-0.65,0-1.18,0.51-1.22,1.15
				c-0.04,0.74-0.07,1.48-0.07,2.22c0.02,20.22,14.29,37.62,34.12,41.6l0,0c0.04,0.01,0.08,0,0.12-0.01
				c0.14-0.04,0.22-0.19,0.18-0.33c-0.38-1.35-0.7-2.8-1-4.28C71.65,111.59,70.73,110.56,69.5,110.15z"/>
			<path class="st5" d="M38.96,113.28c-0.03-0.02-0.05-0.03-0.08-0.04c-0.28-0.12-0.59,0.01-0.71,0.29
				c-0.94,2.23-2.05,4.38-3.34,6.43c-0.04,0.06-0.06,0.13-0.06,0.2c0,0.21,0.17,0.39,0.38,0.39c1.29,0.01,2.49-0.64,3.18-1.73
				c0.78-1.26,1.49-2.56,2.13-3.89c0.16-0.34,0.04-0.74-0.29-0.93C39.77,113.76,39.36,113.52,38.96,113.28z"/>
			<path class="st5" d="M41.14,112.67c0.15,0.07,0.33,0,0.4-0.15c0.14-0.37,0.28-0.75,0.42-1.12c0.06-0.16,0.01-0.34-0.13-0.44
				c-0.59-0.45-1.16-0.9-1.72-1.37c-0.04-0.03-0.08-0.05-0.12-0.07c-0.18-0.05-0.36,0.05-0.42,0.22c-0.14,0.46-0.29,0.91-0.45,1.36
				h0c-0.05,0.18,0.03,0.37,0.18,0.46c0.59,0.38,1.19,0.74,1.81,1.1C41.13,112.67,41.14,112.67,41.14,112.67z"/>
			<path class="st5" d="M10.3,68.87c0.13,0.08,0.28,0.11,0.44,0.09c0.4-0.04,0.68-0.4,0.64-0.79c-0.16-1.84,0.12-3.69,0.83-5.39
				c0.35-0.91,0.26-1.92-0.25-2.75c-0.63-1.04-1.01-2.21-1.12-3.42c-0.03-0.29-0.2-0.55-0.46-0.69c-0.19-0.11-0.42-0.14-0.64-0.1
				c-1.98,0.39-3.79,1.39-5.18,2.87c-0.77,0.86-0.97,2.08-0.5,3.14C5.33,64.78,7.52,67.24,10.3,68.87z"/>
			<path class="st5" d="M29.29,46.12c-1.67-1.97-3.83-3.48-6.26-4.37h0.02c-0.2-0.13-0.46-0.07-0.59,0.13
				c-0.13,0.2-0.07,0.46,0.13,0.59c1,0.99,1.83,2.13,2.47,3.38c1.53,3.1,2.2,6.56,1.94,10.01c-0.01,0.09,0.01,0.17,0.03,0.25
				c0.12,0.35,0.49,0.53,0.84,0.42c1.33-0.44,2.76-0.44,4.09,0c0.08,0.03,0.17,0.04,0.25,0.03c0.36-0.02,0.64-0.34,0.62-0.7
				c-0.27-3.45,0.39-6.9,1.92-10.01c0.64-1.25,1.47-2.4,2.47-3.39c0.2-0.12,0.26-0.38,0.13-0.58c-0.12-0.2-0.38-0.26-0.58-0.13
				c-2.43,0.9-4.58,2.41-6.25,4.38c-0.03,0.03-0.05,0.06-0.09,0.09C30.1,46.5,29.58,46.46,29.29,46.12z"/>
			<path class="st5" d="M19.76,125.67l1.78,0c0.37,0,0.71-0.23,0.84-0.59l0.28-0.7c0.24-0.62,0.94-0.93,1.56-0.69
				c0.2,0.09,0.31,0.32,0.23,0.53l-0.46,1.19c-0.01,0.02-0.01,0.05-0.01,0.07c0,0.11,0.09,0.2,0.2,0.2l3.83,0
				c0.39,0,0.73-0.24,0.87-0.6l0.3-0.76l0.42-1.07c0.39-1.02,1.17-1.85,2.15-2.31c0.43-0.19,0.79-0.49,1.06-0.88
				c0.9-1.33,1.71-2.71,2.45-4.13c0.26-0.5,0.07-1.12-0.42-1.39c-0.82-0.45-1.63-0.92-2.41-1.41c-0.01,0-0.02-0.01-0.02-0.01
				c-0.21-0.1-0.46-0.01-0.56,0.2c-0.91,2.21-2,4.34-3.26,6.38c-0.98,1.56-2.7,2.5-4.54,2.49l-1.61,0c-1.08,0-2.06,0.66-2.45,1.68
				l-0.53,1.36c-0.02,0.04-0.02,0.08-0.02,0.13C19.42,125.52,19.57,125.67,19.76,125.67z"/>
			<path class="st5" d="M13.68,41.41c-1.71,0.49-3.31,1.29-4.74,2.34c-0.14,0.1-0.23,0.25-0.26,0.41c-0.07,0.36,0.17,0.71,0.52,0.77
				c1.86,0.35,3.59,1.18,5.02,2.42C15,47.99,16.02,48.23,17,48c0.62-0.15,1.25-0.22,1.88-0.22c1.78,0,3.51,0.58,4.92,1.67
				c0.13,0.1,0.31,0.13,0.47,0.08c0.27-0.09,0.41-0.38,0.32-0.65c-1.29-3.99-3.96-6.9-7.4-7.53C16.03,41.11,14.83,41.13,13.68,41.41
				z"/>
			<path class="st5" d="M40.97,49.38c-3.57,0-6.46,2.9-6.46,6.47c0.01,3.56,2.89,6.45,6.46,6.46c0,0,0.01,0,0.01,0
				c3.57,0,6.46-2.9,6.46-6.47C47.44,52.27,44.54,49.38,40.97,49.38z M44.85,58.56c-0.32,0.45-0.71,0.84-1.16,1.16
				c-2.14,1.5-5.09,0.99-6.59-1.15s-0.99-5.09,1.15-6.59c0.07-0.05,0.17-0.05,0.24,0c0.11,0.07,0.14,0.21,0.07,0.31
				c-0.47,0.61-0.76,1.33-0.85,2.1c-0.27,2.33,1.4,4.44,3.73,4.72c1.1,0.13,2.21-0.18,3.09-0.86c0.08-0.05,0.18-0.05,0.25,0
				C44.89,58.31,44.92,58.45,44.85,58.56z"/>
			<path class="st5" d="M10.52,70.81h-0.03c-0.07-0.04-0.16-0.06-0.24-0.07c-0.4-0.05-0.77,0.24-0.82,0.64
				c-0.2,1.5-0.3,3.01-0.3,4.52c-0.02,7.44,2.38,14.7,6.82,20.67c0.23,0.31,0.46,0.62,0.7,0.92c0.12,0.17,0.35,0.21,0.52,0.1
				s0.21-0.35,0.1-0.52c-3.54-6.49-5.4-13.78-5.38-21.17c0-0.74,0.03-1.66,0.09-2.56C12.05,72.26,11.47,71.27,10.52,70.81z"/>
			<path class="st5" d="M29.4,72.79c0.06,0.12,0.16,0.22,0.28,0.28c0.29,0.14,0.64,0.01,0.78-0.28l3.81-8.03
				c0.33-0.66,0.5-1.38,0.5-2.12c0-2.67-2.17-4.84-4.85-4.83c-2.67,0-4.84,2.17-4.84,4.84c0,0.74,0.17,1.47,0.5,2.13L29.4,72.79z"/>
			<path class="st5" d="M18.88,49.4c-3.57,0-6.46,2.9-6.46,6.47c0,3.57,2.9,6.46,6.47,6.46c3.57-0.01,6.46-2.9,6.46-6.47
				C25.35,52.29,22.45,49.39,18.88,49.4z M22.76,58.57c-0.32,0.45-0.71,0.84-1.16,1.16c-2.14,1.5-5.09,0.99-6.59-1.15
				c-1.5-2.14-0.99-5.09,1.15-6.59c0.07-0.05,0.17-0.05,0.24,0c0.11,0.07,0.14,0.21,0.07,0.31c-0.47,0.61-0.76,1.33-0.85,2.1
				c-0.27,2.33,1.4,4.44,3.73,4.72c1.1,0.13,2.21-0.18,3.09-0.86c0.08-0.05,0.18-0.05,0.25,0C22.8,58.33,22.83,58.47,22.76,58.57z"
				/>
		</g>
	</g>
</g>
<g id="Layer_2" class="st6">
	<g class="st7">
		<path class="st1" d="M44.52,128.29c-0.73,0-1.44-0.12-2.12-0.36c-0.18-0.06-0.38-0.14-0.57-0.23c-0.05-0.02-0.13-0.04-0.2-0.04
			c-0.07,0-0.15,0.02-0.22,0.05c-0.26,0.12-0.52,0.23-0.79,0.31c-0.34,0.13-0.73,0.22-1.14,0.26l-20.49,0
			c-0.88,0-1.7-0.44-2.19-1.16c-0.49-0.72-0.59-1.64-0.27-2.45l0.7-1.81c0.79-2.03,2.7-3.33,4.88-3.33h1.62
			c0.97,0,1.83-0.47,2.33-1.26c1.18-1.9,2.22-3.91,3.07-5.99c-2.11-1.51-4.1-3.23-5.92-5.09C10.82,99.1,4.35,84.44,6.76,69.81
			c-0.45-0.4-0.87-0.76-1.27-1.14c-3.42-3.25-5.36-7.63-5.48-12.34c-0.12-4.71,1.6-9.19,4.85-12.61c3.36-3.54,7.91-5.49,12.8-5.49
			c4.48,0,8.75,1.68,12.03,4.74c3.28-3.04,7.53-4.7,12-4.7c3.93,0,7.65,1.27,10.76,3.66c7.66,5.9,9.14,16.9,3.34,24.61
			c5.38,3.62,9.57,9.21,11.8,15.75c2.96,8.71,4.23,16.3,5.34,23l0.02,0.12c0.8,4.81,1.5,8.96,2.67,12.63l0.14,0.46
			c0.06,0.21,0.08,0.42,0.06,0.64c-0.1,0.75-0.74,1.32-1.5,1.32c0,0-0.15-0.01-0.19-0.01l-0.51-0.08
			c-3.69-0.58-7.29-1.63-10.71-3.11c-0.28,0.55-0.58,1.09-0.89,1.63c-0.69,1.19-1.44,2.36-2.24,3.49c-0.33,0.48-0.88,0.76-1.47,0.76
			c-0.16,0-0.33-0.02-0.48-0.07c-3.61-1.02-7.16-2.35-10.55-3.93c-0.27,0.47-0.54,0.91-0.81,1.33c0.78,0.6,1.35,1.45,1.6,2.4
			l0.37,1.43c0.3,1.1-0.03,2.29-0.86,3.09c-0.61,0.59-1.4,0.91-2.24,0.91C45.33,128.29,44.52,128.29,44.52,128.29z M41.64,123.76
			c0.18,0,0.37,0.02,0.54,0.07c0.24,0.06,0.49,0.17,0.71,0.32c0.21,0.15,0.45,0.27,0.7,0.35c0.29,0.1,0.59,0.15,0.89,0.15h0.29
			l-0.23-0.88c-0.1-0.38-0.45-0.65-0.84-0.65h-1.2c-0.25-0.01-0.47-0.08-0.66-0.2c-0.26-0.17-0.44-0.44-0.51-0.75
			c-0.06-0.31,0-0.63,0.17-0.9l0.68-0.99c0.72-1.02,1.42-2.1,2.08-3.23c0.4-0.71,0.8-1.44,1.16-2.18c0.01-0.02,0.02-0.03,0.02-0.05
			c-0.64-0.43-1.26-0.82-1.86-1.22c-0.94,2.28-2.06,4.48-3.36,6.57c-0.99,1.57-2.57,2.6-4.36,2.88c0.36,0.37,0.5,0.93,0.3,1.44
			l-0.06,0.16h2.39c0.15,0,0.3-0.01,0.45-0.03l0.17-0.02c0.39-0.05,0.75-0.17,1.08-0.36l0.31-0.18
			C40.85,123.87,41.25,123.76,41.64,123.76z M32.11,124.66c0.09,0,0.16-0.05,0.18-0.12l0.19-0.51c0.14-0.35,0.36-0.66,0.63-0.89
			h-0.2c-0.49,0-0.93,0.3-1.11,0.76l-0.3,0.76H32.11z M27.69,124.65l0.24-0.72l0.42-1.07c0.49-1.26,1.43-2.27,2.66-2.85
			c0.28-0.12,0.5-0.31,0.66-0.54c0.87-1.29,1.67-2.64,2.39-4.02c-0.65-0.39-1.27-0.76-1.87-1.13c-0.86,2-1.89,3.99-3.06,5.87
			c-0.99,1.57-2.57,2.6-4.36,2.88c0.37,0.38,0.51,0.94,0.32,1.47l-0.05,0.12H27.69z M21.99,123.14c-0.62,0.05-1.17,0.45-1.39,1.03
			l-0.18,0.47h0.74l0.26-0.65C21.54,123.65,21.74,123.37,21.99,123.14z M38.58,114.38c-0.72,1.66-1.54,3.28-2.46,4.84
			c0.42-0.22,0.79-0.54,1.05-0.96c0.71-1.14,1.37-2.34,1.96-3.55C38.95,114.6,38.77,114.49,38.58,114.38z M48.95,115.93
			c2.76,1.28,5.65,2.39,8.59,3.29c0.46-0.69,0.91-1.41,1.34-2.15c0.08-0.13,0.15-0.25,0.21-0.37c0,0,0.04-0.08,0.05-0.09
			c0.27-0.49,0.1-1.1-0.39-1.37c-2.65-1.48-5.16-3.24-7.45-5.21C50.66,112.03,49.87,114.02,48.95,115.93z M39.52,73.48
			c-0.12,0-0.22,0.09-0.23,0.21c-0.04,0.71-0.06,1.43-0.06,2.16c0.01,19.26,13.44,36.06,32.11,40.39c-0.23-0.92-0.46-1.96-0.71-3.18
			c-0.19-0.91-0.86-1.66-1.74-1.95c-11.03-3.68-19.81-12.46-23.49-23.48c-0.27-0.82,0.18-1.68,0.98-1.95
			c0.21-0.07,0.42-0.1,0.64-0.1c0.88,0,1.68,0.56,1.98,1.39c3.39,9.61,11.05,17.23,20.63,20.57c-0.09-0.55-0.49-2.96-0.6-3.61
			c-0.14-0.8-0.65-1.5-1.37-1.86c-3.52-1.75-6.61-4.14-9.17-7.11c-3.05-3.53-5.22-7.8-6.3-12.33c-0.17-0.9,0.38-1.7,1.21-1.86
			c0.13-0.03,0.27-0.04,0.41-0.04c0.95,0,1.79,0.64,2.04,1.56c0.98,3.79,2.85,7.35,5.39,10.31c1.94,2.24,4.22,4.11,6.79,5.57
			c-0.95-4.99-2.25-9.94-3.85-14.74c-1.95-5.74-5.62-10.66-10.31-13.85c-0.15-0.11-0.33-0.16-0.52-0.16c-0.21,0-0.41,0.07-0.57,0.2
			c-3.15,2.48-7.09,3.85-11.09,3.85H39.52z M14.5,73.24c-0.1,0-0.18,0.08-0.18,0.17c-0.06,1.01-0.09,1.84-0.09,2.45
			c-0.06,15.17,8.12,29,21.39,36.27c0.28-0.68,0.54-1.36,0.77-2.03c0.37-1.03,0.12-2.16-0.64-2.94c-2.15-2.21-4.08-4.66-5.73-7.27
			c-0.34-0.59-0.42-1.18-0.26-1.75c0.15-0.57,0.52-1.04,1.03-1.33c0.22-0.12,0.46-0.18,0.7-0.18c0.48,0,0.93,0.24,1.19,0.64
			c2.08,3.43,4.62,6.51,7.56,9.19c1.14,1.04,2.34,2.02,3.57,2.92c1.01,0.73,2.07,1.42,3.15,2.07c0.27-0.69,0.52-1.4,0.76-2.11
			c0.4-1.24,0.11-2.61-0.76-3.57c-0.17-0.19-0.3-0.34-0.44-0.5c-7.04-8.17-10.92-18.61-10.92-29.4c0-0.77,0.02-1.55,0.07-2.38
			c-0.75-0.05-1.35-0.67-1.37-1.42c0-0.03,0-0.08,0-0.11c0-1.12,0.97-2.08,2.15-2.08h5.28c0.7,0,1.41-0.05,2.1-0.16
			c0.95-0.15,1.68-0.92,1.77-1.87c0.11-1.3-0.08-2.64-0.55-3.86c-0.04-0.09-0.1-0.09-0.12-0.09c-1.34,0.68-2.79,1.04-4.25,1.04
			c-1.28,0-2.56-0.28-3.73-0.8c-0.13,0.62-0.33,1.22-0.61,1.79l-4.02,8.46c-0.29,0.61-0.79,1.11-1.4,1.4
			c-0.4,0.19-0.83,0.29-1.27,0.29c-1.14,0-2.18-0.66-2.67-1.69l-4.07-8.48c-0.28-0.55-0.48-1.15-0.6-1.76
			c-1.17,0.53-2.45,0.8-3.72,0.8c-1.45,0-2.9-0.35-4.18-1.02c-0.02,0-0.04-0.01-0.06-0.01c-0.05,0-0.09,0.02-0.11,0.06
			c-0.49,1.27-0.68,2.63-0.55,3.97c0.11,0.91,0.83,1.65,1.76,1.79c0.7,0.11,1.4,0.16,2.1,0.16h5.28c0.6,0.01,1.14,0.24,1.54,0.65
			c0.4,0.41,0.62,0.95,0.61,1.53c-0.02,0.81-0.66,1.43-1.46,1.43h-5.97c-1.02,0-2.05-0.09-3.05-0.26L14.5,73.24z M10.11,71.86
			c-0.16,1.33-0.24,2.67-0.24,3.99c-0.01,4.64,0.96,9.26,2.81,13.5c-1.36-4.36-2.06-8.93-2.05-13.52c0-0.73,0.03-1.65,0.09-2.61
			C10.75,72.69,10.52,72.19,10.11,71.86z M29.67,58.79c-2.12,0-3.84,1.72-3.84,3.84c0,0.58,0.13,1.17,0.39,1.68l3.45,7.25l3.44-7.24
			c0.27-0.53,0.4-1.11,0.41-1.69C33.51,60.51,31.78,58.79,29.67,58.79z M9.58,56.78c-1.77,0.36-3.34,1.24-4.56,2.55
			c-0.49,0.55-0.62,1.36-0.32,2.05c1.13,2.62,2.98,4.78,5.37,6.3c-0.08-1.82,0.24-3.65,0.95-5.33c0.23-0.58,0.16-1.28-0.18-1.84
			C10.15,59.39,9.72,58.1,9.58,56.78z M49.75,56.78c-0.14,1.31-0.57,2.6-1.25,3.73c-0.34,0.56-0.41,1.26-0.17,1.86
			c0.7,1.66,1.02,3.48,0.94,5.29c2.38-1.51,4.23-3.67,5.36-6.29c0.31-0.7,0.18-1.51-0.32-2.07C53.09,58.02,51.51,57.14,49.75,56.78z
			 M40.71,50.37c-3.01,0-5.47,2.45-5.47,5.47c0,3,2.45,5.46,5.46,5.47c3.02,0,5.48-2.45,5.48-5.47
			C46.18,52.82,43.73,50.37,40.71,50.37z M18.62,50.37c-3.01,0-5.47,2.45-5.47,5.47c0,3.01,2.45,5.47,5.47,5.47
			c3.01,0,5.46-2.46,5.47-5.47C24.09,52.82,21.64,50.37,18.62,50.37z M6.91,47.38c-0.34,0.02-0.66,0.2-0.87,0.5
			c-1.61,2.32-2.47,5.05-2.48,7.88c1.74-1.38,3.76-2.28,5.92-2.63c0.3-0.06,0.56-0.28,0.68-0.58c0.45-1.15,1.11-2.18,1.97-3.06
			c0.08-0.11,0.07-0.24-0.02-0.31c-1.39-1.17-3.12-1.8-4.9-1.8C7.12,47.37,7.02,47.37,6.91,47.38z M52.12,47.37
			c-1.78,0-3.51,0.63-4.88,1.77c-0.13,0.12-0.13,0.25-0.05,0.33c0.86,0.88,1.52,1.91,1.97,3.06c0.12,0.31,0.39,0.53,0.71,0.59
			c2.16,0.35,4.18,1.25,5.89,2.61c-0.02-2.82-0.88-5.54-2.49-7.86c-0.2-0.29-0.52-0.47-0.88-0.49
			C52.32,47.37,52.22,47.37,52.12,47.37z M24.75,43.77c0.35,0.51,0.67,1.05,0.95,1.6c1.54,3.12,2.25,6.58,2.07,10.04
			c0.62-0.16,1.25-0.24,1.89-0.24s1.27,0.08,1.88,0.24c-0.19-3.45,0.52-6.91,2.06-10.03c0.29-0.56,0.61-1.1,0.96-1.61
			c-1.33,0.79-2.52,1.8-3.53,2.98c-0.06,0.07-0.13,0.14-0.2,0.2c-0.33,0.28-0.75,0.44-1.18,0.44c-0.53,0-1.03-0.23-1.37-0.63
			C27.27,45.57,26.07,44.56,24.75,43.77z M18.63,46.75c1.47,0,2.94,0.37,4.23,1.05c-1.33-3.01-3.54-5.03-6.1-5.5
			c-0.49-0.1-0.96-0.15-1.44-0.15c-0.56,0-1.12,0.07-1.66,0.2c-1.32,0.38-2.59,0.97-3.77,1.74c1.74,0.45,3.36,1.3,4.73,2.47
			C15,46.88,15.5,47.06,16,47.06c0.17,0,0.34-0.02,0.5-0.06c0.69-0.17,1.41-0.25,2.12-0.25C18.62,46.75,18.63,46.75,18.63,46.75z
			 M43.99,42.14c-0.47,0-0.95,0.05-1.41,0.15c-2.56,0.48-4.77,2.49-6.12,5.49c1.29-0.68,2.75-1.04,4.22-1.04
			c0.72,0,1.43,0.09,2.12,0.25c0.17,0.04,0.34,0.06,0.51,0.06c0.51,0,1-0.18,1.39-0.5c1.36-1.17,2.98-2.01,4.72-2.46
			c-1.17-0.77-2.44-1.36-3.79-1.75C45.11,42.21,44.55,42.14,43.99,42.14z"/>
		<path class="st1" d="M74.8,118.79l-0.14-0.46c-1.2-3.77-1.9-8-2.72-12.89c-1.11-6.68-2.38-14.23-5.3-22.84
			c-2.17-6.38-6.34-11.87-11.56-15.34c-0.38-0.26-0.48-0.78-0.21-1.16c0.01-0.01,0.01-0.02,0.02-0.02
			c5.61-7.29,4.25-17.74-3.04-23.35c-6.49-4.99-15.64-4.53-21.59,1.09c-0.31,0.3-0.81,0.3-1.12,0c-6.67-6.33-17.2-6.07-23.54,0.6
			s-6.07,17.2,0.6,23.54c0.38,0.36,0.77,0.7,1.17,1.02c0.3,0.24,0.45,0.62,0.39,1c-2.35,14.27,3.98,28.57,16.13,36.43l0,0
			c1.83,1.88,3.82,3.6,5.95,5.12c0.32,0.23,0.44,0.65,0.29,1.02c-0.89,2.17-1.95,4.26-3.19,6.24c-0.69,1.09-1.89,1.74-3.17,1.73
			h-1.61c-1.75-0.01-3.32,1.07-3.95,2.7l-0.71,1.82c-0.2,0.5-0.14,1.07,0.17,1.52c0.31,0.45,0.81,0.72,1.36,0.72h20.4
			c0.31-0.03,0.62-0.1,0.91-0.21c0.23-0.08,0.45-0.17,0.67-0.27c0.2-0.1,0.43-0.15,0.65-0.15c0.21,0,0.42,0.05,0.62,0.13
			c0.16,0.07,0.32,0.14,0.48,0.19c0.57,0.2,1.18,0.31,1.78,0.31h0.78c0.59,0.01,1.15-0.22,1.57-0.62c0.57-0.55,0.79-1.36,0.59-2.12
			l-0.37-1.43c-0.25-0.93-0.86-1.71-1.7-2.16c-0.17-0.09-0.23-0.29-0.14-0.46c0.01-0.01,0.01-0.02,0.02-0.03
			c0.44-0.67,0.87-1.37,1.28-2.09l0,0c0.17-0.3,0.55-0.42,0.87-0.27c3.44,1.63,7.01,2.97,10.67,4.01c0.33,0.09,0.68-0.03,0.87-0.31
			l0,0c0.76-1.07,1.5-2.22,2.19-3.41c0.35-0.59,0.67-1.2,0.98-1.81c0.17-0.34,0.58-0.49,0.93-0.33c3.42,1.5,7.02,2.55,10.71,3.14
			l0.48,0.08c0.28,0.04,0.54-0.16,0.57-0.44C74.83,118.93,74.82,118.86,74.8,118.79z M55.55,61.79c-1.28,2.95-3.47,5.42-6.25,7.04
			c-0.35,0.19-0.78,0.07-0.97-0.28c-0.07-0.13-0.1-0.27-0.09-0.42c0.16-1.84-0.12-3.69-0.84-5.39c-0.35-0.9-0.26-1.92,0.24-2.75
			c0.63-1.05,1.02-2.22,1.13-3.44c0.05-0.49,0.49-0.85,0.98-0.8c0.03,0,0.06,0.01,0.1,0.02c2,0.38,3.82,1.39,5.21,2.87
			C55.82,59.51,56.01,60.73,55.55,61.79z M52.46,46.38L52.46,46.38c0.66,0.04,1.27,0.38,1.64,0.92c1.74,2.51,2.67,5.48,2.67,8.53
			c0,0.21,0,0.42,0,0.64c-0.02,0.37-0.33,0.65-0.7,0.64c-0.16-0.01-0.31-0.07-0.42-0.18c-1.67-1.49-3.73-2.47-5.94-2.82
			c-0.67-0.12-1.23-0.57-1.47-1.21c-0.4-1.02-1-1.94-1.76-2.72c-0.47-0.48-0.46-1.24,0.02-1.71c0.03-0.03,0.07-0.06,0.1-0.09
			C48.24,47.01,50.33,46.29,52.46,46.38z M29.67,57.79c2.67,0,4.84,2.17,4.84,4.84c0,0.74-0.17,1.46-0.5,2.12l-3.82,8.03
			c-0.14,0.29-0.49,0.42-0.78,0.28c-0.12-0.06-0.22-0.16-0.28-0.28l-3.81-8.02l0,0c-0.33-0.66-0.5-1.39-0.49-2.13
			C24.83,59.95,26.99,57.79,29.67,57.79z M18.62,62.3c-3.57,0-6.47-2.89-6.47-6.47s2.89-6.47,6.47-6.47s6.47,2.89,6.47,6.47v0
			C25.08,59.4,22.19,62.3,18.62,62.3z M34.25,55.83c0-3.57,2.89-6.47,6.47-6.47c3.57,0,6.47,2.89,6.47,6.47
			c0,3.57-2.89,6.47-6.47,6.47c0,0-0.01,0-0.01,0C37.14,62.29,34.25,59.4,34.25,55.83z M42.38,41.31c1.16-0.24,2.36-0.22,3.51,0.06
			c1.71,0.49,3.31,1.28,4.74,2.34c0.29,0.22,0.35,0.63,0.13,0.93c-0.1,0.13-0.25,0.22-0.41,0.25c-1.86,0.35-3.59,1.19-5.02,2.42
			c-0.77,0.64-1.79,0.88-2.76,0.64c-0.62-0.15-1.25-0.22-1.88-0.22c-1.78,0-3.51,0.59-4.92,1.67c-0.23,0.17-0.55,0.12-0.71-0.11
			c-0.1-0.13-0.12-0.3-0.08-0.45C36.29,44.86,38.96,41.95,42.38,41.31z M22.78,41.73c2.43,0.9,4.58,2.4,6.25,4.38
			c0.29,0.34,0.81,0.38,1.15,0.09c0.03-0.03,0.06-0.05,0.09-0.09c1.67-1.97,3.83-3.48,6.25-4.38c0.2-0.12,0.46-0.06,0.58,0.13
			c0.12,0.2,0.06,0.46-0.13,0.58c-1,0.99-1.84,2.13-2.47,3.39c-1.53,3.1-2.19,6.56-1.93,10.01c0.02,0.36-0.25,0.68-0.62,0.7
			c-0.09,0.01-0.17-0.01-0.25-0.03c-1.33-0.44-2.76-0.44-4.09,0c-0.35,0.12-0.72-0.07-0.84-0.42c-0.03-0.08-0.04-0.17-0.03-0.25
			c0.27-3.45-0.4-6.91-1.93-10.01c-0.64-1.25-1.47-2.4-2.47-3.39c-0.2-0.13-0.25-0.39-0.13-0.59c0.13-0.2,0.39-0.25,0.59-0.13H22.78
			z M8.69,43.72c1.43-1.06,3.03-1.85,4.74-2.34c1.15-0.28,2.35-0.3,3.52-0.06c3.44,0.63,6.1,3.54,7.39,7.53
			c0.09,0.27-0.06,0.56-0.32,0.65c-0.16,0.05-0.33,0.02-0.47-0.08c-1.41-1.09-3.14-1.68-4.92-1.67c-0.63,0-1.27,0.08-1.88,0.22
			c-0.97,0.23-1.99-0.01-2.76-0.64c-1.43-1.23-3.17-2.07-5.02-2.42c-0.36-0.07-0.59-0.42-0.52-0.77
			C8.46,43.97,8.55,43.82,8.69,43.72z M2.57,56.48c0-0.21,0-0.42,0-0.64c0-3.05,0.92-6.03,2.66-8.53c0.38-0.54,0.98-0.88,1.64-0.92
			l0,0c2.13-0.09,4.22,0.63,5.86,2c0.53,0.41,0.62,1.17,0.21,1.7c-0.03,0.04-0.06,0.07-0.09,0.1c-0.76,0.78-1.36,1.71-1.76,2.72
			c-0.24,0.63-0.79,1.08-1.45,1.21c-2.21,0.36-4.27,1.34-5.94,2.82c-0.26,0.26-0.69,0.26-0.95,0C2.64,56.81,2.57,56.65,2.57,56.48z
			 M3.78,61.79c-0.46-1.05-0.26-2.28,0.51-3.13c1.38-1.47,3.19-2.48,5.18-2.86c0.22-0.05,0.44-0.01,0.64,0.1l0,0
			c0.26,0.14,0.43,0.4,0.46,0.69c0.11,1.21,0.49,2.38,1.12,3.42c0.51,0.83,0.6,1.84,0.25,2.75c-0.71,1.7-1,3.55-0.84,5.39
			c0.04,0.4-0.25,0.75-0.64,0.79c-0.15,0.02-0.3-0.02-0.44-0.09C7.25,67.21,5.06,64.74,3.78,61.79z M16.38,97.45
			c-0.24-0.3-0.47-0.61-0.7-0.92c-4.44-5.97-6.83-13.23-6.81-20.67c0-1.51,0.1-3.02,0.3-4.52c0.05-0.4,0.42-0.69,0.82-0.64
			c0.08,0.01,0.16,0.03,0.24,0.07h0.03c0.95,0.47,1.53,1.45,1.47,2.51c-0.05,0.9-0.09,1.82-0.09,2.56
			c-0.02,7.4,1.83,14.68,5.37,21.18c0.12,0.17,0.07,0.41-0.1,0.52C16.73,97.66,16.5,97.62,16.38,97.45L16.38,97.45z M29.28,123.22
			l-0.42,1.07l-0.3,0.76l0,0c-0.14,0.36-0.49,0.6-0.87,0.6h-3.83c-0.11,0-0.2-0.09-0.2-0.2c0-0.02,0-0.05,0.01-0.07l0.46-1.19
			c0.08-0.21-0.03-0.44-0.23-0.53c-0.62-0.24-1.32,0.07-1.57,0.69l-0.28,0.7l0,0c-0.13,0.35-0.46,0.59-0.84,0.59h-1.78
			c-0.18,0-0.34-0.15-0.34-0.33c0-0.04,0.01-0.09,0.02-0.13l0.53-1.36c0.39-1.01,1.36-1.68,2.45-1.67h1.61
			c1.84,0.01,3.56-0.93,4.55-2.49c1.26-2.03,2.35-4.16,3.26-6.37c0.1-0.21,0.35-0.3,0.56-0.2c0.01,0,0.02,0.01,0.02,0.01
			c0.78,0.49,1.59,0.97,2.41,1.41c0.49,0.28,0.68,0.89,0.42,1.39c-0.74,1.42-1.56,2.8-2.45,4.13c-0.26,0.39-0.63,0.69-1.06,0.88
			C30.45,121.37,29.68,122.2,29.28,123.22z M39.87,113.98c0.32,0.19,0.45,0.59,0.28,0.93c-0.64,1.33-1.35,2.63-2.13,3.89
			c-0.69,1.09-1.89,1.74-3.18,1.73c-0.21,0-0.38-0.18-0.38-0.39c0-0.07,0.02-0.14,0.06-0.2c1.29-2.05,2.41-4.19,3.35-6.42
			c0.12-0.27,0.43-0.4,0.71-0.29c0.03,0.01,0.05,0.03,0.08,0.04C39.06,113.51,39.47,113.74,39.87,113.98z M38.83,111.09
			c0.16-0.45,0.31-0.9,0.45-1.36c0.05-0.18,0.24-0.28,0.42-0.22c0.04,0.01,0.09,0.04,0.12,0.07c0.56,0.47,1.13,0.93,1.72,1.37
			c0.13,0.1,0.19,0.28,0.13,0.44c-0.14,0.38-0.28,0.75-0.42,1.12c-0.07,0.15-0.25,0.22-0.4,0.15c0,0-0.01,0-0.01-0.01
			c-0.62-0.36-1.22-0.72-1.81-1.1C38.86,111.45,38.78,111.27,38.83,111.09L38.83,111.09z M46.36,115.27
			c-0.38,0.77-0.79,1.54-1.22,2.29c-0.67,1.14-1.38,2.25-2.12,3.29l-0.67,0.97c-0.06,0.09-0.04,0.21,0.05,0.27
			c0.03,0.02,0.07,0.03,0.1,0.03h1.2c0.85,0,1.59,0.57,1.81,1.39l0.37,1.42c0.05,0.17,0.01,0.35-0.1,0.49
			c-0.11,0.14-0.27,0.22-0.45,0.22h-0.81c-0.43,0-0.85-0.07-1.26-0.21c-0.34-0.12-0.66-0.28-0.95-0.48
			c-0.12-0.08-0.25-0.14-0.39-0.17c-0.31-0.08-0.64-0.03-0.91,0.13l-0.31,0.18c-0.45,0.26-0.94,0.42-1.45,0.49l-0.19,0.03
			c-0.19,0.02-0.38,0.03-0.57,0.03h-3.25c-0.23,0-0.42-0.19-0.41-0.43c0-0.05,0.01-0.09,0.03-0.14l0.37-0.95
			c0.07-0.19-0.02-0.4-0.21-0.47c-0.64-0.25-1.37,0.07-1.62,0.71l-0.19,0.5c-0.17,0.47-0.62,0.78-1.12,0.77h-1.67
			c-0.09,0-0.17-0.04-0.22-0.12c-0.05-0.07-0.07-0.17-0.03-0.25l0.68-1.75c0.33-0.84,1.14-1.39,2.04-1.39h1.93
			c1.84,0.01,3.56-0.93,4.55-2.49c1.41-2.28,2.61-4.67,3.58-7.17c0.06-0.17,0.26-0.26,0.43-0.19c0.03,0.01,0.05,0.02,0.07,0.04
			c0.8,0.54,1.62,1.06,2.46,1.55C46.42,114.16,46.61,114.77,46.36,115.27L46.36,115.27z M47.11,112.69
			c-1.34-0.77-2.64-1.61-3.89-2.51c-1.27-0.93-2.49-1.93-3.65-2.99c-3.01-2.74-5.62-5.9-7.73-9.38c-0.12-0.18-0.36-0.24-0.55-0.14
			c-0.57,0.33-0.77,1.06-0.44,1.63c0.01,0.01,0.02,0.03,0.02,0.04c1.62,2.56,3.5,4.94,5.6,7.11c1.02,1.05,1.35,2.59,0.86,3.97
			c-0.32,0.92-0.68,1.83-1.07,2.73c-0.08,0.19-0.3,0.27-0.48,0.19c-0.01,0-0.02-0.01-0.03-0.01c-13.9-7.32-22.59-21.76-22.53-37.48
			c0-0.71,0.04-1.62,0.09-2.51c0.04-0.65,0.6-1.15,1.25-1.11c0.04,0,0.09,0.01,0.13,0.01c0.95,0.16,1.91,0.25,2.88,0.25h5.97
			c0.25,0,0.45-0.19,0.46-0.44c0.01-0.64-0.5-1.16-1.14-1.17c0,0-0.01,0-0.01,0h-5.27c-0.76,0-1.51-0.06-2.26-0.17
			c-1.37-0.2-2.44-1.3-2.6-2.68c-0.15-1.5,0.06-3.01,0.61-4.41c0.21-0.58,0.85-0.87,1.43-0.66c0.05,0.02,0.09,0.04,0.14,0.06
			c2.33,1.21,5.11,1.21,7.44,0c0.18-0.1,0.41-0.1,0.59,0l0,0c0.17,0.1,0.29,0.27,0.32,0.47c0.09,0.68,0.29,1.35,0.6,1.97l4.07,8.49
			c0.47,0.98,1.63,1.39,2.61,0.93c0.41-0.19,0.73-0.52,0.93-0.93l4.03-8.47c0.3-0.62,0.51-1.28,0.6-1.97
			c0.02-0.16,0.1-0.31,0.22-0.42c0.19-0.16,0.46-0.19,0.69-0.07c2.34,1.22,5.12,1.22,7.46,0c0.55-0.29,1.23-0.07,1.51,0.48
			c0.02,0.04,0.04,0.08,0.06,0.13c0.53,1.37,0.74,2.85,0.62,4.32c-0.14,1.41-1.22,2.54-2.62,2.76c-0.75,0.11-1.5,0.17-2.26,0.17
			h-5.27c-0.64,0-1.15,0.51-1.16,1.15c0,0.01,0,0.01,0,0.02c0,0.25,0.21,0.45,0.46,0.44c0,0,0,0,0,0h0.26c0.37,0,0.67,0.3,0.67,0.68
			c0,0.01,0,0.03,0,0.04c-0.06,0.87-0.09,1.76-0.09,2.65c0,10.56,3.79,20.76,10.68,28.76c0.14,0.16,0.28,0.32,0.42,0.48
			c1.11,1.24,1.48,2.98,0.96,4.56c-0.32,0.98-0.68,1.94-1.07,2.88c-0.07,0.17-0.28,0.26-0.45,0.18
			C47.14,112.71,47.12,112.71,47.11,112.69L47.11,112.69z M60.02,117.08c-0.09,0.16-0.18,0.32-0.28,0.48
			c-0.5,0.87-1.03,1.71-1.58,2.51c-0.12,0.18-0.35,0.26-0.56,0.2c-3.33-1-6.58-2.25-9.71-3.75c-0.15-0.08-0.21-0.26-0.14-0.42
			c1.03-2.07,1.9-4.21,2.6-6.41c0.17-0.52,0.73-0.81,1.25-0.65c0.13,0.04,0.24,0.1,0.34,0.19c2.26,1.94,4.7,3.65,7.3,5.11
			C60.21,114.9,60.56,116.12,60.02,117.08L60.02,117.08z M72.32,117.47c-19.82-3.99-34.08-21.4-34.09-41.62
			c0-0.74,0.03-1.49,0.07-2.22c0.04-0.65,0.57-1.15,1.22-1.15h2.09c3.82,0.01,7.52-1.27,10.52-3.64c0.66-0.52,1.58-0.55,2.27-0.08
			c4.83,3.28,8.67,8.4,10.7,14.36c1.79,5.34,3.18,10.81,4.16,16.36c0.03,0.15-0.07,0.29-0.21,0.31c-0.06,0.01-0.12,0-0.17-0.02
			c-3.21-1.59-6.07-3.81-8.42-6.52c-2.66-3.09-4.58-6.75-5.6-10.7c-0.15-0.57-0.72-0.92-1.29-0.8l0,0
			c-0.29,0.05-0.48,0.33-0.42,0.62c0,0.01,0,0.02,0,0.02c1.04,4.4,3.13,8.49,6.08,11.91c2.47,2.86,5.48,5.19,8.86,6.87
			c1.01,0.51,1.72,1.47,1.91,2.58c0.11,0.66,0.22,1.31,0.33,1.95c0.16,0.98,0.32,1.93,0.48,2.86c0.03,0.15-0.07,0.28-0.22,0.31
			c-0.04,0.01-0.08,0-0.12-0.01c-10.46-3.24-18.78-11.23-22.42-21.57c-0.2-0.56-0.8-0.85-1.36-0.68c-0.28,0.09-0.44,0.39-0.34,0.67
			c0,0,0,0,0,0c3.6,10.79,12.07,19.25,22.86,22.85c1.23,0.41,2.14,1.44,2.41,2.7c0.3,1.48,0.62,2.93,1,4.28
			c0.04,0.14-0.04,0.29-0.18,0.33C72.39,117.48,72.35,117.48,72.32,117.47L72.32,117.47z"/>
	</g>
</g>
</svg>
